<svg width="13" height="13" viewBox="0 0 13 13" fill="none" xmlns="http://www.w3.org/2000/svg">
<path d="M0.707363 2.12133L10.6069 12.0208C10.9974 12.4114 11.6305 12.4114 12.0211 12.0208C12.4116 11.6303 12.4116 10.9971 12.0211 10.6066L2.12158 0.707121C1.73105 0.316596 1.09789 0.316596 0.707363 0.707121C0.316839 1.09765 0.316839 1.73081 0.707363 2.12133Z" fill="white"/>
<path d="M10.6066 0.707119L0.707107 10.6066C0.316582 10.9971 0.316582 11.6303 0.707107 12.0208C1.09763 12.4114 1.7308 12.4114 2.12132 12.0208L12.0208 2.12133C12.4113 1.73081 12.4113 1.09764 12.0208 0.707119C11.6303 0.316595 10.9971 0.316595 10.6066 0.707119Z" fill="white"/>
</svg>
