<svg width="32" height="32" viewBox="0 0 32 32" fill="none" xmlns="http://www.w3.org/2000/svg">
<path d="M6.11121 23.095C4.73755 21.6368 4 20.0002 4 17.3474C4 12.6814 7.27535 8.49846 12.0408 6.43115L13.231 8.26797C8.78405 10.6741 7.91491 13.795 7.56752 15.763C8.28351 15.3927 9.22077 15.2624 10.1396 15.3476C12.5454 15.5706 14.4416 17.5456 14.4416 20.0002C14.4416 22.5775 12.3522 24.6668 9.77488 24.6668C8.34413 24.6668 6.97595 24.013 6.11121 23.095ZM19.4445 23.095C18.0709 21.6368 17.3333 20.0002 17.3333 17.3474C17.3333 12.6814 20.6087 8.49846 25.3741 6.43115L26.5644 8.26797C22.1173 10.6741 21.2483 13.795 20.9008 15.763C21.6168 15.3927 22.5541 15.2624 23.4729 15.3476C25.8788 15.5706 27.7749 17.5456 27.7749 20.0002C27.7749 22.5775 25.6856 24.6668 23.1083 24.6668C21.6775 24.6668 20.3093 24.013 19.4445 23.095Z" fill="#0083FF"/>
</svg>
