<svg width="16" height="10" viewBox="0 0 16 10" fill="none" xmlns="http://www.w3.org/2000/svg">
<path d="M15 8H1C0.447715 8 0 8.44772 0 9C0 9.55228 0.447715 10 1 10H15C15.5523 10 16 9.55228 16 9C16 8.44772 15.5523 8 15 8Z" fill="white"/>
<path d="M15 4H1C0.447715 4 0 4.44772 0 5C0 5.55228 0.447715 6 1 6H15C15.5523 6 16 5.55228 16 5C16 4.44772 15.5523 4 15 4Z" fill="white"/>
<path d="M15 0H1C0.447715 0 0 0.447715 0 1C0 1.55228 0.447715 2 1 2H15C15.5523 2 16 1.55228 16 1C16 0.447715 15.5523 0 15 0Z" fill="white"/>
</svg>
