<svg width="239" height="61" viewBox="0 0 239 61" fill="none" xmlns="http://www.w3.org/2000/svg">
<path fill-rule="evenodd" clip-rule="evenodd" d="M11.2306 12.4011C11.2222 12.6374 11.1705 13.8694 11.1154 15.139C11.0604 16.4085 10.9807 18.4403 10.9383 19.6541C10.8959 20.8678 10.8263 22.5181 10.7839 23.3214C10.7413 24.1246 10.7162 24.8032 10.7281 24.8295C10.7399 24.8556 10.6519 27.2271 10.5329 30.0996C10.0438 41.8855 9.96869 43.8743 10.0096 43.9648C10.0331 44.0169 10.7225 44.381 11.5417 44.7739C14.245 46.0705 16.712 47.9135 18.6026 50.049L19.4445 51L22.5585 49.5503C25.5838 48.142 25.6685 48.0924 25.539 47.8058C25.4657 47.6436 25.5214 47.1678 25.6627 46.7483C26.1474 45.3111 27.6076 45.1083 28.6824 46.3291C28.8609 46.532 29.1476 46.4217 31.9538 45.0715L35.0295 43.5915L34.8547 42.434C34.6509 41.0849 34.6894 36.4194 34.9105 35.6678C34.9939 35.3847 35.2428 34.4043 35.4636 33.4893C35.6846 32.5744 35.9247 31.7665 35.9974 31.6943C36.1156 31.5769 32.2258 28.3599 31.882 28.2906C31.8091 28.276 30.9899 27.6531 30.0615 26.9065C29.1332 26.1598 27.0316 24.4859 25.3914 23.1868C23.7512 21.8876 19.9266 18.846 16.8923 16.4276C13.8579 14.0092 11.3461 12.0173 11.3105 12.001C11.2749 11.9849 11.2389 12.1649 11.2306 12.4011ZM15.5047 42.161C18.2624 42.3285 18.2624 42.3285 20.3429 46.2424L30.3573 41.4898C27.9205 38.3839 28.4653 37.4864 30.3925 35.0956C22.5575 29.2745 17.4869 21.2669 14.7457 17.7317C14.7127 17.7475 15.9944 20.6563 17.5938 24.1956L20.5019 30.6307L21.3543 30.642C22.7999 30.661 23.6876 31.2741 24.3308 32.6973C24.6206 33.3384 24.6705 33.6984 24.5911 34.5755L24.4929 35.6605L25.8636 37.5687C26.6175 38.6183 27.355 39.6428 27.5022 39.8454L27.7702 40.2137L24.7453 41.6691C22.2239 42.8823 21.7046 43.0893 21.6251 42.9133C21.5726 42.7973 21.286 41.6542 20.9881 40.3733C20.6902 39.0924 20.3914 37.9226 20.3241 37.7736C20.2568 37.6246 19.9569 37.3616 19.6577 37.189C17.7512 36.0892 17.264 33.6742 18.6194 32.0416C18.8801 31.7276 19.1087 31.3797 19.1273 31.2686C19.1738 30.9904 13.5378 18.5372 13.3543 18.5124C15.9776 28.0221 16.6655 36.3295 15.5047 42.161ZM19.7079 33.0186C18.8738 34.1284 19.4432 35.6853 20.8278 36.0804L21.4964 36.2712L21.9969 38.4712C22.2722 39.6813 22.5329 40.7561 22.5762 40.8595C22.6342 40.9975 23.0207 40.8716 24.0305 40.3857C24.7871 40.0217 25.4231 39.6734 25.4437 39.6117C25.4646 39.5501 24.8681 38.6387 24.1181 37.5866L22.7547 35.6733L22.9537 35.2372C23.2647 34.5566 23.3066 33.8276 23.0658 33.2921C22.4137 31.8415 20.6976 31.7017 19.7079 33.0186Z" fill="#0083FF"/>
<path d="M62.44 32.28C62.552 32.336 62.6453 32.392 62.72 32.448C62.7947 32.4853 62.832 32.5507 62.832 32.644C62.832 32.6813 62.8133 32.756 62.776 32.868C62.4773 33.596 62.0667 34.3427 61.544 35.108C61.04 35.8547 60.4053 36.5547 59.64 37.208C58.8933 37.8613 57.9973 38.384 56.952 38.776C55.9253 39.168 54.74 39.364 53.396 39.364C51.156 39.364 49.2613 38.8973 47.712 37.964C46.1627 37.0307 44.9867 35.7613 44.184 34.156C43.3813 32.532 42.98 30.7213 42.98 28.724C42.98 27.7907 43.0827 26.82 43.288 25.812C43.4933 24.7853 43.8293 23.7867 44.296 22.816C44.7627 21.8453 45.388 20.9773 46.172 20.212C46.9747 19.428 47.964 18.812 49.14 18.364C50.316 17.8973 51.7067 17.664 53.312 17.664C54.656 17.664 55.8133 17.832 56.784 18.168C57.7547 18.504 58.5667 18.9333 59.22 19.456C59.8733 19.96 60.396 20.492 60.788 21.052C61.18 21.612 61.46 22.1347 61.628 22.62C61.796 23.1053 61.88 23.4693 61.88 23.712C61.88 23.9733 61.7213 24.16 61.404 24.272L57.988 25.476C57.8013 25.5507 57.6333 25.588 57.484 25.588C57.26 25.588 57.148 25.4947 57.148 25.308C57.148 25.2707 57.1573 25.1307 57.176 24.888C57.1947 24.6453 57.204 24.4773 57.204 24.384C57.204 23.712 57.0827 23.0307 56.84 22.34C56.5973 21.6493 56.1773 21.0707 55.58 20.604C54.9827 20.1187 54.152 19.876 53.088 19.876C52.08 19.876 51.2307 20.1187 50.54 20.604C49.868 21.0893 49.3267 21.724 48.916 22.508C48.5053 23.292 48.2067 24.1227 48.02 25C47.852 25.8773 47.768 26.708 47.768 27.492C47.768 29.3027 47.9827 30.8987 48.412 32.28C48.8413 33.6427 49.504 34.716 50.4 35.5C51.3147 36.2653 52.4627 36.648 53.844 36.648C55.2253 36.648 56.3547 36.4053 57.232 35.92C58.128 35.4347 58.8373 34.8467 59.36 34.156C59.9013 33.4467 60.3213 32.756 60.62 32.084C60.732 31.8413 60.8907 31.72 61.096 31.72C61.1893 31.72 61.3107 31.7573 61.46 31.832L62.44 32.28ZM71.8487 37.32C72.1287 37.32 72.2687 37.46 72.2687 37.74V38.58C72.2687 38.86 72.11 39 71.7927 39H63.8687C63.5513 39 63.3927 38.86 63.3927 38.58V37.74C63.3927 37.46 63.5327 37.32 63.8127 37.32H63.8687C64.5593 37.32 65.0633 37.068 65.3807 36.564C65.7167 36.0413 65.8847 35.4067 65.8847 34.66V24.16C65.8847 23.6373 65.8473 23.1427 65.7727 22.676C65.7167 22.2093 65.5767 21.8173 65.3527 21.5C65.1287 21.164 64.7553 20.968 64.2327 20.912C64.0087 20.8933 63.8967 20.772 63.8967 20.548V19.596C63.8967 19.484 63.934 19.4093 64.0087 19.372C64.0833 19.3347 64.186 19.288 64.3167 19.232C65.642 18.7467 66.6967 18.2987 67.4807 17.888C68.2833 17.4587 68.946 17.048 69.4687 16.656C69.506 16.6187 69.5433 16.6 69.5807 16.6H69.6647C69.702 16.6 69.7207 16.6187 69.7207 16.656V34.632C69.7207 35.3787 69.8887 36.0133 70.2247 36.536C70.5607 37.0587 71.074 37.32 71.7647 37.32H71.8487ZM76.9234 33.988C77.2408 34.772 77.7448 35.472 78.4354 36.088C79.1448 36.704 80.0408 37.012 81.1234 37.012C81.7208 37.012 82.3461 36.844 82.9994 36.508C83.6528 36.172 84.2221 35.6493 84.7074 34.94C84.7634 34.8467 84.8381 34.8 84.9314 34.8C85.0248 34.8 85.1181 34.828 85.2114 34.884C85.3234 34.94 85.6034 35.0987 86.0514 35.36C86.1261 35.416 86.1634 35.4907 86.1634 35.584C86.1634 35.7147 86.1074 35.8733 85.9954 36.06C85.4728 37.0307 84.7634 37.824 83.8674 38.44C82.9714 39.056 81.8048 39.364 80.3674 39.364C78.8181 39.364 77.4834 39.0187 76.3634 38.328C75.2434 37.6373 74.3754 36.7227 73.7594 35.584C73.1621 34.4453 72.8634 33.204 72.8634 31.86C72.8634 30.572 73.0501 29.4707 73.4234 28.556C73.8154 27.6227 74.3288 26.876 74.9634 26.316C75.5981 25.7373 76.3074 25.3173 77.0914 25.056C77.8941 24.776 78.7061 24.636 79.5274 24.636C80.4608 24.636 81.2821 24.8227 81.9914 25.196C82.7008 25.5507 83.2981 26.008 83.7834 26.568C84.2874 27.128 84.6608 27.7253 84.9034 28.36C85.1648 28.976 85.2954 29.5547 85.2954 30.096C85.2954 30.2453 85.2114 30.3573 85.0434 30.432L76.9234 33.988ZM81.0954 29.984C81.0954 29.088 80.8808 28.3507 80.4514 27.772C80.0221 27.1933 79.4808 26.904 78.8274 26.904C78.0621 26.904 77.4554 27.212 77.0074 27.828C76.5594 28.4253 76.3354 29.1813 76.3354 30.096C76.3354 30.376 76.3448 30.7213 76.3634 31.132C76.4008 31.5427 76.4754 31.916 76.5874 32.252L81.0954 29.984ZM100.811 33.82C100.811 34.492 100.913 35.0987 101.119 35.64C101.324 36.1627 101.772 36.4707 102.463 36.564C102.687 36.5827 102.799 36.704 102.799 36.928V37.852C102.799 38.1133 102.659 38.244 102.379 38.244C101.464 38.244 100.699 38.3 100.083 38.412C99.4854 38.5053 98.9627 38.636 98.5147 38.804C98.0854 38.9533 97.6561 39.1213 97.2267 39.308C97.1521 39.3453 97.0867 39.364 97.0307 39.364H96.9467C96.9094 39.364 96.8907 39.3267 96.8907 39.252C96.8907 39.1773 96.9094 39 96.9467 38.72C96.9841 38.4213 97.0214 38.0947 97.0587 37.74C97.1147 37.3667 97.1614 37.0493 97.1987 36.788C97.1054 37.0307 96.9001 37.3573 96.5827 37.768C96.2841 38.1787 95.8361 38.552 95.2387 38.888C94.6601 39.2053 93.8947 39.364 92.9427 39.364C92.3081 39.364 91.6267 39.2333 90.8987 38.972C90.1894 38.7107 89.5174 38.2907 88.8827 37.712C88.2481 37.1333 87.7254 36.3773 87.3147 35.444C86.9227 34.492 86.7267 33.3347 86.7267 31.972C86.7267 30.236 87.0347 28.836 87.6507 27.772C88.2854 26.6893 89.0974 25.896 90.0867 25.392C91.0947 24.888 92.1587 24.636 93.2787 24.636C94.1934 24.636 95.0334 24.776 95.7987 25.056C96.5641 25.336 97.2361 25.7373 97.8147 26.26C98.3001 26.0547 98.7107 25.868 99.0467 25.7C99.4014 25.5133 99.7001 25.3267 99.9427 25.14C100.036 25.0653 100.129 24.9907 100.223 24.916C100.335 24.8413 100.456 24.7667 100.587 24.692C100.643 24.6547 100.689 24.636 100.727 24.636H100.755C100.792 24.636 100.811 24.6547 100.811 24.692V33.82ZM96.8907 29.424C96.8347 29.0507 96.6947 28.64 96.4707 28.192C96.2654 27.7253 95.9481 27.3333 95.5187 27.016C95.0894 26.68 94.5107 26.512 93.7827 26.512C92.8867 26.512 92.1867 26.736 91.6827 27.184C91.1787 27.6133 90.8241 28.1733 90.6187 28.864C90.4321 29.5547 90.3387 30.292 90.3387 31.076C90.3387 32.868 90.6934 34.2867 91.4027 35.332C92.1307 36.3773 93.0641 36.9 94.2027 36.9C94.8747 36.9 95.3974 36.76 95.7707 36.48C96.1627 36.1813 96.4427 35.8827 96.6107 35.584C96.7787 35.2853 96.8721 35.108 96.8907 35.052V29.424ZM110.019 27.94C110.523 26.8573 111.223 26.036 112.119 25.476C113.015 24.916 113.957 24.636 114.947 24.636C115.824 24.636 116.571 24.8787 117.187 25.364C117.803 25.8493 118.111 26.568 118.111 27.52C118.111 27.9307 118.073 28.2947 117.999 28.612C117.924 28.9293 117.719 29.1627 117.383 29.312L114.751 30.376C114.639 30.4133 114.555 30.432 114.499 30.432C114.331 30.432 114.247 30.348 114.247 30.18C114.247 30.124 114.265 30.04 114.303 29.928C114.415 29.6667 114.48 29.4147 114.499 29.172C114.536 28.9293 114.555 28.7147 114.555 28.528C114.555 28.024 114.424 27.66 114.163 27.436C113.92 27.1933 113.612 27.072 113.239 27.072C112.809 27.072 112.408 27.2027 112.035 27.464C111.661 27.7253 111.335 28.0427 111.055 28.416C110.775 28.7893 110.569 29.1533 110.439 29.508V34.66C110.439 35.4067 110.607 36.0413 110.943 36.564C111.279 37.068 111.792 37.32 112.483 37.32H112.539C112.819 37.32 112.959 37.46 112.959 37.74V38.58C112.959 38.86 112.819 39 112.539 39H104.391C104.111 39 103.971 38.86 103.971 38.58V37.74C103.971 37.46 104.111 37.32 104.391 37.32H104.447C105.137 37.32 105.651 37.068 105.987 36.564C106.323 36.0413 106.491 35.4067 106.491 34.66V31.132C106.491 30.628 106.453 30.1427 106.379 29.676C106.323 29.2093 106.183 28.8173 105.959 28.5C105.735 28.164 105.361 27.968 104.839 27.912C104.615 27.8933 104.503 27.772 104.503 27.548V26.596C104.503 26.4093 104.643 26.288 104.923 26.232C106.248 26.0267 107.405 25.7 108.395 25.252C109.403 24.804 110.084 24.4493 110.439 24.188C110.495 24.1507 110.541 24.132 110.579 24.132H110.635C110.672 24.132 110.691 24.1507 110.691 24.188C110.691 24.2067 110.663 24.3467 110.607 24.608C110.569 24.8693 110.513 25.2053 110.439 25.616C110.383 26.008 110.308 26.4187 110.215 26.848C110.14 27.2587 110.075 27.6227 110.019 27.94Z" fill="#0083FF"/>
<path d="M65.1338 45.2584C69.8582 44.452 87.055 42.8837 101.134 45.2584C93.8257 45.2584 84.304 45.4985 78.1732 48" stroke="#40566D" stroke-width="2.5" stroke-linejoin="round"/>
<path d="M143.44 32.28C143.552 32.336 143.645 32.392 143.72 32.448C143.795 32.4853 143.832 32.5507 143.832 32.644C143.832 32.6813 143.813 32.756 143.776 32.868C143.477 33.596 143.067 34.3427 142.544 35.108C142.04 35.8547 141.405 36.5547 140.64 37.208C139.893 37.8613 138.997 38.384 137.952 38.776C136.925 39.168 135.74 39.364 134.396 39.364C132.156 39.364 130.261 38.8973 128.712 37.964C127.163 37.0307 125.987 35.7613 125.184 34.156C124.381 32.532 123.98 30.7213 123.98 28.724C123.98 27.7907 124.083 26.82 124.288 25.812C124.493 24.7853 124.829 23.7867 125.296 22.816C125.763 21.8453 126.388 20.9773 127.172 20.212C127.975 19.428 128.964 18.812 130.14 18.364C131.316 17.8973 132.707 17.664 134.312 17.664C135.656 17.664 136.813 17.832 137.784 18.168C138.755 18.504 139.567 18.9333 140.22 19.456C140.873 19.96 141.396 20.492 141.788 21.052C142.18 21.612 142.46 22.1347 142.628 22.62C142.796 23.1053 142.88 23.4693 142.88 23.712C142.88 23.9733 142.721 24.16 142.404 24.272L138.988 25.476C138.801 25.5507 138.633 25.588 138.484 25.588C138.26 25.588 138.148 25.4947 138.148 25.308C138.148 25.2707 138.157 25.1307 138.176 24.888C138.195 24.6453 138.204 24.4773 138.204 24.384C138.204 23.712 138.083 23.0307 137.84 22.34C137.597 21.6493 137.177 21.0707 136.58 20.604C135.983 20.1187 135.152 19.876 134.088 19.876C133.08 19.876 132.231 20.1187 131.54 20.604C130.868 21.0893 130.327 21.724 129.916 22.508C129.505 23.292 129.207 24.1227 129.02 25C128.852 25.8773 128.768 26.708 128.768 27.492C128.768 29.3027 128.983 30.8987 129.412 32.28C129.841 33.6427 130.504 34.716 131.4 35.5C132.315 36.2653 133.463 36.648 134.844 36.648C136.225 36.648 137.355 36.4053 138.232 35.92C139.128 35.4347 139.837 34.8467 140.36 34.156C140.901 33.4467 141.321 32.756 141.62 32.084C141.732 31.8413 141.891 31.72 142.096 31.72C142.189 31.72 142.311 31.7573 142.46 31.832L143.44 32.28ZM160.157 33.344C160.157 33.8293 160.185 34.3147 160.241 34.8C160.315 35.2667 160.465 35.668 160.689 36.004C160.931 36.3213 161.305 36.508 161.809 36.564C161.958 36.5827 162.042 36.6293 162.061 36.704C162.098 36.76 162.117 36.8347 162.117 36.928V37.852C162.117 38.1133 161.986 38.244 161.725 38.244C160.81 38.244 160.045 38.3 159.429 38.412C158.831 38.5053 158.309 38.636 157.861 38.804C157.431 38.9533 157.002 39.1213 156.573 39.308C156.498 39.3453 156.423 39.364 156.349 39.364H156.293C156.255 39.364 156.237 39.336 156.237 39.28C156.237 39.224 156.265 38.944 156.321 38.44C156.395 37.9173 156.517 37.0213 156.685 35.752C156.423 36.2747 156.059 36.816 155.593 37.376C155.126 37.936 154.557 38.412 153.885 38.804C153.231 39.1773 152.475 39.364 151.617 39.364C150.609 39.364 149.787 39.2147 149.153 38.916C148.537 38.5987 148.061 38.188 147.725 37.684C147.389 37.1613 147.155 36.5827 147.025 35.948C146.913 35.2947 146.857 34.632 146.857 33.96V29.34C146.857 28.5747 146.679 27.94 146.325 27.436C145.989 26.932 145.475 26.68 144.785 26.68H144.673C144.393 26.68 144.253 26.54 144.253 26.26V25.42C144.253 25.14 144.393 25 144.673 25H150.357C150.637 25 150.777 25.14 150.777 25.42V34.128C150.777 34.632 150.823 35.0987 150.917 35.528C151.01 35.9387 151.197 36.2747 151.477 36.536C151.775 36.7787 152.214 36.9 152.793 36.9C153.259 36.9 153.726 36.788 154.193 36.564C154.659 36.3213 155.07 36.0227 155.425 35.668C155.798 35.2947 156.059 34.912 156.209 34.52V29.34C156.209 28.5747 156.031 27.94 155.677 27.436C155.341 26.932 154.837 26.68 154.165 26.68H154.109C153.829 26.68 153.689 26.54 153.689 26.26V25.42C153.689 25.14 153.829 25 154.109 25H159.737C160.017 25 160.157 25.14 160.157 25.42V33.344ZM172.999 36.984C173.055 37.0587 173.083 37.1427 173.083 37.236C173.083 37.348 173.008 37.4507 172.859 37.544L172.019 38.076C171.515 38.3933 170.908 38.692 170.199 38.972C169.489 39.2333 168.78 39.364 168.071 39.364C167.511 39.364 166.979 39.2333 166.475 38.972C165.989 38.7107 165.597 38.272 165.299 37.656C165 37.0213 164.851 36.1533 164.851 35.052V29.872C164.851 29.368 164.823 28.8733 164.767 28.388C164.711 27.884 164.533 27.4733 164.235 27.156C163.955 26.8387 163.479 26.68 162.807 26.68C162.527 26.68 162.387 26.54 162.387 26.26V25.42C162.387 25.14 162.527 25 162.807 25H164.851V23.124C164.851 22.8813 164.935 22.7133 165.103 22.62C165.513 22.396 166.055 22.088 166.727 21.696C167.399 21.2853 167.996 20.8187 168.519 20.296C168.556 20.2587 168.603 20.24 168.659 20.24H168.715C168.752 20.24 168.771 20.268 168.771 20.324V25H172.523C172.803 25 172.943 25.14 172.943 25.42V26.624C172.943 26.904 172.803 27.044 172.523 27.044H168.771V35.052C168.771 35.78 168.883 36.284 169.107 36.564C169.331 36.8253 169.611 36.956 169.947 36.956C170.264 36.956 170.6 36.872 170.955 36.704C171.309 36.5173 171.636 36.3307 171.935 36.144C172.065 36.0693 172.168 36.032 172.243 36.032C172.355 36.032 172.457 36.1067 172.551 36.256L172.999 36.984ZM181.016 24.636C182.08 24.636 183.06 24.8507 183.956 25.28C184.871 25.6907 185.655 26.26 186.308 26.988C186.962 27.6973 187.466 28.5 187.82 29.396C188.194 30.2733 188.38 31.188 188.38 32.14C188.38 33.5213 188.054 34.7627 187.4 35.864C186.747 36.9467 185.888 37.8053 184.824 38.44C183.76 39.056 182.603 39.364 181.352 39.364C180.288 39.364 179.308 39.1587 178.412 38.748C177.516 38.3373 176.732 37.7867 176.06 37.096C175.407 36.3867 174.894 35.584 174.52 34.688C174.166 33.7733 173.988 32.8213 173.988 31.832C173.988 30.4693 174.306 29.2467 174.94 28.164C175.575 27.0813 176.424 26.2227 177.488 25.588C178.552 24.9533 179.728 24.636 181.016 24.636ZM182.22 37.096C182.575 37.096 182.967 37.0027 183.396 36.816C183.826 36.6293 184.199 36.3027 184.516 35.836C184.852 35.3693 185.02 34.7253 185.02 33.904C185.02 33.2507 184.89 32.532 184.628 31.748C184.386 30.9453 184.04 30.18 183.592 29.452C183.163 28.7053 182.65 28.0987 182.052 27.632C181.474 27.1467 180.839 26.904 180.148 26.904C179.383 26.904 178.72 27.1933 178.16 27.772C177.6 28.332 177.32 29.1067 177.32 30.096C177.32 30.7307 177.442 31.4493 177.684 32.252C177.946 33.0547 178.291 33.8293 178.72 34.576C179.168 35.304 179.691 35.9107 180.288 36.396C180.886 36.8627 181.53 37.096 182.22 37.096ZM192.005 24.776C192.005 23.936 192.108 23.0493 192.313 22.116C192.518 21.164 192.854 20.2773 193.321 19.456C193.806 18.616 194.45 17.9347 195.253 17.412C196.074 16.8707 197.101 16.6 198.333 16.6C199.826 16.6 200.928 16.8893 201.637 17.468C202.365 18.028 202.729 18.728 202.729 19.568C202.729 20.0533 202.636 20.52 202.449 20.968C202.393 21.0987 202.309 21.2107 202.197 21.304C202.104 21.3973 201.954 21.4627 201.749 21.5C201.413 21.5747 201.012 21.668 200.545 21.78C200.097 21.8733 199.686 21.9573 199.313 22.032C198.958 22.1067 198.753 22.144 198.697 22.144C198.585 22.144 198.529 22.06 198.529 21.892C198.529 21.7987 198.557 21.696 198.613 21.584C198.968 20.8747 199.145 20.2587 199.145 19.736C199.145 19.2133 199.005 18.8213 198.725 18.56C198.464 18.28 198.165 18.14 197.829 18.14C197.381 18.14 196.989 18.3453 196.653 18.756C196.298 19.1667 196.056 19.736 195.925 20.464C195.813 21.192 195.757 22.088 195.757 23.152V25H202.617V24.776C202.617 23.936 202.72 23.0493 202.925 22.116C203.13 21.164 203.466 20.2773 203.933 19.456C204.418 18.616 205.062 17.9347 205.865 17.412C206.686 16.8707 207.713 16.6 208.945 16.6C210.438 16.6 211.54 16.8893 212.249 17.468C212.977 18.028 213.341 18.728 213.341 19.568C213.341 20.0533 213.248 20.52 213.061 20.968C213.005 21.0987 212.921 21.2107 212.809 21.304C212.716 21.3973 212.566 21.4627 212.361 21.5C212.025 21.5747 211.624 21.668 211.157 21.78C210.709 21.8733 210.298 21.9573 209.925 22.032C209.57 22.1067 209.365 22.144 209.309 22.144C209.197 22.144 209.141 22.06 209.141 21.892C209.141 21.7987 209.169 21.696 209.225 21.584C209.58 20.8747 209.757 20.2587 209.757 19.736C209.757 19.2133 209.617 18.8213 209.337 18.56C209.076 18.28 208.777 18.14 208.441 18.14C207.993 18.14 207.601 18.3453 207.265 18.756C206.91 19.1667 206.668 19.736 206.537 20.464C206.425 21.192 206.369 22.088 206.369 23.152V25H210.121C210.401 25 210.541 25.14 210.541 25.42V26.624C210.541 26.904 210.401 27.044 210.121 27.044H206.369V34.66C206.369 35.4067 206.537 36.0413 206.873 36.564C207.228 37.068 207.75 37.32 208.441 37.32C208.721 37.32 208.861 37.46 208.861 37.74V38.58C208.861 38.86 208.721 39 208.441 39H200.545C200.265 39 200.125 38.86 200.125 38.58V37.74C200.125 37.46 200.265 37.32 200.545 37.32C201.236 37.32 201.749 37.068 202.085 36.564C202.421 36.0413 202.589 35.4067 202.589 34.66V29.872C202.589 28.696 202.346 27.9307 201.861 27.576C201.394 27.2213 200.582 27.044 199.425 27.044H195.757V34.66C195.757 35.4067 195.925 36.0413 196.261 36.564C196.616 37.068 197.138 37.32 197.829 37.32C198.109 37.32 198.249 37.46 198.249 37.74V38.58C198.249 38.86 198.109 39 197.829 39H189.933C189.653 39 189.513 38.86 189.513 38.58V37.74C189.513 37.46 189.653 37.32 189.933 37.32C190.624 37.32 191.137 37.068 191.473 36.564C191.809 36.0413 191.977 35.4067 191.977 34.66V29.872C191.977 29.368 191.949 28.8733 191.893 28.388C191.837 27.884 191.66 27.4733 191.361 27.156C191.081 26.8387 190.605 26.68 189.933 26.68C189.653 26.68 189.513 26.54 189.513 26.26V25.42C189.513 25.14 189.653 25 189.933 25H192.005V24.776Z" fill="#40566D"/>
</svg>
