<svg width="25" height="24" viewBox="0 0 25 24" fill="none" xmlns="http://www.w3.org/2000/svg">
<path d="M21.91 11.58L12.915 2.585C12.55 2.225 12.05 2 11.5 2H4.5C3.395 2 2.5 2.895 2.5 4V11C2.5 11.555 2.725 12.055 3.09 12.415L12.09 21.415C12.45 21.775 12.95 22 13.5 22C14.05 22 14.555 21.775 14.915 21.415L21.915 14.415C22.275 14.05 22.5 13.55 22.5 13C22.5 12.445 22.275 11.945 21.91 11.58ZM6 7C5.17 7 4.5 6.33 4.5 5.5C4.5 4.67 5.17 4 6 4C6.83 4 7.5 4.67 7.5 5.5C7.5 6.33 6.83 7 6 7Z" fill="white"/>
</svg>
