<svg width="626" height="370" viewBox="0 0 626 370" fill="none" xmlns="http://www.w3.org/2000/svg">
<g filter="url(#filter0_i_9033_109231)">
<path d="M321.732 86.966C272.76 136.009 231.951 97.9755 156.161 81.9615C29.5926 55.2182 0.000209823 155.25 0 234.095C-0.000209822 312.94 71.8651 367.212 133.529 367.212C229.408 367.212 248.73 301.738 298.049 301.738C359.98 301.738 439.498 386.229 536.276 367.212C626.057 349.57 656.765 132.6 589.911 50.9343C498.964 -60.1633 370.704 37.9229 321.732 86.966Z" fill="#F1F1FA"/>
</g>
<mask id="mask0_9033_109231" style="mask-type:alpha" maskUnits="userSpaceOnUse" x="0" y="0" width="626" height="370">
<path d="M321.732 86.9659C272.76 136.009 231.951 97.9755 156.161 81.9615C29.5926 55.2182 0.000209823 155.25 0 234.095C-0.000209822 312.94 71.8651 367.212 133.529 367.212C229.408 367.212 248.73 301.738 298.049 301.738C359.98 301.738 439.498 386.229 536.276 367.212C626.057 349.57 656.765 132.6 589.911 50.9343C498.964 -60.1633 370.704 37.9229 321.732 86.9659Z" fill="#F1F1FA"/>
</mask>
<g mask="url(#mask0_9033_109231)">
<path d="M618.917 337.37L626.579 340.047L177.671 446.642C45.1951 434.603 -208.019 396.428 -161.069 340.047C-102.382 269.571 -36.487 227.285 117.954 227.285C303.822 227.285 328.603 235.943 618.917 337.37Z" fill="#BBBBD6"/>
<path d="M596.281 222C670.412 222 730.129 236.095 792.935 303.929L592.162 383.214C459.686 371.175 271.337 384.095 318.287 327.714C376.975 257.238 441.84 222 596.281 222Z" fill="#BBBBD6" stroke="#F1F1FA" stroke-width="4.34928"/>
<path d="M117.27 215.451C129.775 215.451 139.812 224.143 139.812 234.668V270.586H153.307V254.717C153.307 246.942 160.681 240.512 169.991 240.512C179.267 240.512 186.677 246.956 186.677 254.717V274.766C186.677 288.055 174.012 298.994 158.275 298.994H139.812V365.319C139.812 367.557 137.664 369.499 134.844 369.499H99.6953C96.8751 369.499 94.7256 367.557 94.7256 365.319V324.056H76.2627C60.5267 324.056 47.8616 313.116 47.8613 299.827V269.754C47.8613 261.979 55.2366 255.549 64.5469 255.549C73.8225 255.549 81.2314 261.993 81.2314 269.754V295.647H94.7256V234.668C94.7256 224.103 104.746 215.451 117.27 215.451Z" fill="#0083FF" stroke="black"/>
<path fill-rule="evenodd" clip-rule="evenodd" d="M507.864 372.92C507.775 372.921 507.685 372.921 507.595 372.921C507.505 372.921 507.416 372.921 507.326 372.92C502.28 372.894 497.432 372.135 492.923 370.761C492.905 370.762 492.887 370.762 492.869 370.762L481.353 370.783H481.35C480.516 370.783 479.84 370.205 479.838 369.491C479.837 368.777 480.511 368.196 481.347 368.195L486.286 368.186C480.661 365.499 475.795 361.784 472.038 357.339L462.715 352.264C462.01 351.88 461.802 351.08 462.251 350.478C462.7 349.874 463.633 349.697 464.339 350.08L468.46 352.324C465.969 348.124 464.374 343.471 463.893 338.553C463.883 338.534 463.872 338.515 463.863 338.495L459.326 329.438C458.997 328.781 459.353 328.02 460.12 327.739C460.881 327.457 461.776 327.761 462.105 328.418L463.913 332.026C464.412 327.179 465.987 322.53 468.54 318.279C468.538 318.21 468.543 318.139 468.554 318.068L470.185 308.314C470.303 307.608 471.069 307.12 471.896 307.216C472.723 307.318 473.298 307.973 473.18 308.68L472.472 312.912C473.806 311.394 475.285 309.951 476.902 308.596C477.5 308.096 478.457 308.103 479.041 308.614C479.625 309.125 479.617 309.944 479.02 310.444C477.283 311.9 475.718 313.464 474.333 315.118L479.3 313.139C480.06 312.838 480.958 313.12 481.308 313.766C481.661 314.414 481.333 315.184 480.575 315.486L471.436 319.128C468.692 323.578 467.107 328.507 466.814 333.649L470.043 329.504C470.505 328.909 471.443 328.749 472.14 329.145C472.836 329.541 473.023 330.345 472.559 330.94L466.895 338.209C467.491 344.583 470.095 350.48 474.165 355.435C474.407 355.594 474.58 355.807 474.674 356.041C476.758 358.468 479.2 360.657 481.932 362.551C478.047 358.525 475.428 353.572 474.604 348.145C474.592 348.094 474.585 348.043 474.581 347.991C474.412 346.832 474.325 345.652 474.325 344.455C474.325 340.277 475.406 336.272 477.35 332.654V325.046C477.35 324.331 478.026 323.752 478.862 323.752C479.698 323.752 480.374 324.331 480.374 325.046V328.151C485.51 321.89 493.519 317.419 502.843 316.278C503.67 316.171 504.437 316.668 504.555 317.375C504.673 318.083 504.099 318.738 503.272 318.839C488.517 320.645 477.385 331.625 477.35 344.393L479.178 342.369C479.684 341.805 480.637 341.697 481.298 342.136C481.96 342.574 482.081 343.386 481.57 343.952L477.677 348.263C478.867 355.139 483.23 361.142 489.447 365.144C486.6 361.901 484.912 357.872 484.912 353.513C484.912 351.547 485.253 349.618 485.916 347.778L484.475 346.476C483.901 345.958 483.926 345.139 484.533 344.647C485.14 344.158 486.097 344.177 486.67 344.697L487.136 345.118C487.661 344.184 488.276 343.283 488.979 342.421C489.456 341.835 490.396 341.69 491.085 342.1C491.77 342.51 491.937 343.316 491.46 343.902C489.154 346.729 487.936 350.052 487.936 353.513C487.936 356.225 488.69 358.789 490.028 361.06L490.889 360.089C491.394 359.52 492.339 359.407 493.008 359.84C493.673 360.272 493.804 361.084 493.299 361.653L491.724 363.429C495.235 367.531 500.861 370.227 507.216 370.33C507.342 370.332 507.468 370.332 507.594 370.332C507.722 370.332 507.849 370.332 507.976 370.33C509.307 370.309 510.607 370.173 511.861 369.935C509.74 368.558 507.909 367.078 506.331 365.524L504.097 365.889C504.001 365.904 503.905 365.911 503.812 365.911C503.1 365.911 502.467 365.48 502.328 364.859C502.172 364.157 502.71 363.48 503.53 363.346L504.225 363.233C497.807 355.494 496.814 346.406 497.41 339.291C497.331 339.233 497.258 339.166 497.193 339.093L492.403 333.702C491.898 333.133 492.027 332.321 492.691 331.889C493.359 331.456 494.307 331.568 494.811 332.136L497.876 335.586C498.705 330.633 500.083 327.289 500.125 327.191C500.41 326.52 501.279 326.176 502.061 326.417C502.847 326.661 503.252 327.403 502.968 328.075C502.939 328.144 500.023 335.134 500.224 343.7C500.314 347.566 500.993 351.114 502.254 354.336L503.354 353.066C503.852 352.492 504.797 352.372 505.471 352.796C506.141 353.222 506.281 354.032 505.785 354.606L503.561 357.175C506.095 361.921 510.059 365.854 515.433 368.939C517.931 368.006 520.16 366.642 521.991 364.957L520.146 362.655C519.675 362.066 519.85 361.261 520.539 360.857C521.229 360.452 522.17 360.603 522.642 361.192L523.955 362.83C526.038 360.161 527.254 356.956 527.254 353.513C527.254 345.873 521.271 339.407 513.104 337.364L509.107 342.136C508.812 342.489 508.348 342.677 507.877 342.677C507.573 342.677 507.264 342.598 506.997 342.435C506.319 342.018 506.162 341.21 506.65 340.629L509.854 336.803C509.113 336.73 508.359 336.692 507.595 336.692C506.759 336.692 506.083 336.113 506.083 335.398C506.083 334.684 506.759 334.105 507.595 334.105C515.365 334.105 522.235 337.465 526.325 342.575L526.87 341.27C527.149 340.598 528.015 340.246 528.801 340.487C529.588 340.728 529.999 341.468 529.717 342.141L528.299 345.537C528.298 345.541 528.296 345.546 528.294 345.55C528.292 345.554 528.29 345.559 528.288 345.564C529.566 347.991 530.278 350.682 530.278 353.513C530.278 357.871 528.591 361.899 525.745 365.142C529.66 362.621 532.839 359.307 534.954 355.481L532.457 353.078C531.901 352.543 531.958 351.726 532.582 351.251C533.206 350.777 534.161 350.824 534.716 351.358L536.222 352.808C537.27 350.186 537.839 347.376 537.839 344.455C537.839 343.423 537.769 342.402 537.633 341.396L533.78 340.078C533.005 339.812 532.627 339.059 532.937 338.396C533.247 337.732 534.135 337.412 534.903 337.675L537.017 338.398C535.167 331.724 530.28 325.932 523.179 322.272C522.462 321.903 522.232 321.108 522.663 320.496C523.093 319.883 524.023 319.687 524.738 320.055C527.94 321.706 530.733 323.75 533.054 326.094L533.308 323.639C533.382 322.928 534.098 322.41 534.947 322.464C535.778 322.527 536.394 323.155 536.32 323.867L535.765 329.253C539.057 333.711 540.863 338.94 540.863 344.455C540.863 351.322 538.007 357.628 533.257 362.551C535.989 360.657 538.431 358.467 540.516 356.04C540.609 355.807 540.781 355.595 541.022 355.437C545.093 350.481 547.697 344.583 548.293 338.208L542.63 330.94C542.167 330.346 542.354 329.542 543.05 329.146C543.745 328.749 544.683 328.91 545.147 329.505L548.375 333.648C548.081 328.482 546.491 323.555 543.785 319.14L534.614 315.486C533.857 315.184 533.529 314.414 533.882 313.766C534.233 313.12 535.128 312.838 535.89 313.139L540.91 315.139C537.711 311.301 533.568 307.995 528.634 305.451C527.918 305.082 527.687 304.287 528.118 303.675C528.548 303.063 529.48 302.866 530.193 303.235C535.155 305.792 539.372 309.067 542.709 312.858L542.01 308.68C541.892 307.973 542.466 307.318 543.293 307.217C544.122 307.115 544.887 307.607 545.005 308.314L546.635 318.069C546.645 318.126 546.65 318.183 546.65 318.241C549.188 322.476 550.775 327.14 551.277 332.027L553.085 328.419C553.413 327.762 554.309 327.459 555.07 327.74C555.837 328.021 556.193 328.781 555.864 329.438L551.327 338.496C551.317 338.516 551.306 338.537 551.295 338.557C550.813 343.474 549.219 348.126 546.728 352.325L550.849 350.081C551.556 349.696 552.49 349.875 552.937 350.478C553.386 351.081 553.178 351.881 552.474 352.264L543.149 357.341C539.392 361.785 534.526 365.5 528.902 368.186L533.841 368.195C534.677 368.196 535.352 368.777 535.351 369.491C535.349 370.205 534.673 370.783 533.838 370.783H533.835L522.319 370.762C522.301 370.762 522.283 370.762 522.265 370.761C517.757 372.135 512.91 372.894 507.864 372.92Z" fill="#0083FF"/>
<path d="M507.864 372.92L507.863 372.67L507.862 372.67L507.864 372.92ZM507.326 372.92L507.329 372.67L507.328 372.67L507.326 372.92ZM492.923 370.761L492.996 370.522L492.956 370.51L492.915 370.511L492.923 370.761ZM492.869 370.762L492.869 370.512H492.869L492.869 370.762ZM481.353 370.783V371.033L481.354 371.033L481.353 370.783ZM479.838 369.491L479.588 369.492L479.838 369.491ZM481.347 368.195L481.348 368.445H481.348L481.347 368.195ZM486.286 368.186L486.286 368.436L486.394 367.96L486.286 368.186ZM472.038 357.339L472.229 357.178L472.199 357.142L472.158 357.12L472.038 357.339ZM462.715 352.264L462.834 352.044L462.834 352.044L462.715 352.264ZM462.251 350.478L462.452 350.627L462.452 350.627L462.251 350.478ZM464.339 350.08L464.459 349.861L464.459 349.86L464.339 350.08ZM468.46 352.324L468.34 352.543L469.139 352.978L468.675 352.196L468.46 352.324ZM463.893 338.553L464.142 338.528L464.137 338.475L464.111 338.429L463.893 338.553ZM463.863 338.495L464.086 338.383L464.086 338.383L463.863 338.495ZM459.326 329.438L459.549 329.326L459.549 329.326L459.326 329.438ZM460.12 327.739L460.206 327.974L460.207 327.973L460.12 327.739ZM462.105 328.418L461.882 328.53L461.882 328.53L462.105 328.418ZM463.913 332.026L463.689 332.138L464.073 332.905L464.161 332.051L463.913 332.026ZM468.54 318.279L468.754 318.408L468.791 318.346L468.79 318.273L468.54 318.279ZM468.554 318.068L468.308 318.027L468.308 318.027L468.554 318.068ZM470.185 308.314L469.938 308.273L469.938 308.273L470.185 308.314ZM471.896 307.216L471.927 306.968L471.925 306.968L471.896 307.216ZM473.18 308.68L473.426 308.722L473.426 308.721L473.18 308.68ZM472.472 312.912L472.225 312.871L472.081 313.736L472.66 313.078L472.472 312.912ZM476.902 308.596L476.742 308.404L476.742 308.404L476.902 308.596ZM479.041 308.614L478.876 308.802L478.876 308.803L479.041 308.614ZM479.02 310.444L479.181 310.636L479.181 310.636L479.02 310.444ZM474.333 315.118L474.141 314.958L474.425 315.351L474.333 315.118ZM479.3 313.139L479.207 312.907L479.207 312.907L479.3 313.139ZM481.308 313.766L481.088 313.885L481.088 313.886L481.308 313.766ZM480.575 315.486L480.668 315.718L480.668 315.718L480.575 315.486ZM471.436 319.128L471.343 318.896L471.266 318.926L471.223 318.997L471.436 319.128ZM466.814 333.649L466.564 333.635L466.519 334.434L467.011 333.802L466.814 333.649ZM470.043 329.504L470.24 329.658L470.24 329.658L470.043 329.504ZM472.14 329.145L472.264 328.928L472.264 328.928L472.14 329.145ZM472.559 330.94L472.362 330.786L472.362 330.786L472.559 330.94ZM466.895 338.209L466.698 338.056L466.637 338.134L466.646 338.233L466.895 338.209ZM474.165 355.435L473.971 355.594L473.996 355.623L474.028 355.644L474.165 355.435ZM474.674 356.041L474.442 356.134L474.457 356.172L474.484 356.204L474.674 356.041ZM481.932 362.551L481.79 362.757L482.112 362.378L481.932 362.551ZM474.604 348.145L474.851 348.107L474.85 348.099L474.848 348.091L474.604 348.145ZM474.581 347.991L474.83 347.972L474.829 347.964L474.828 347.955L474.581 347.991ZM477.35 332.654L477.57 332.772L477.6 332.717V332.654H477.35ZM480.374 328.151H480.124V328.85L480.568 328.309L480.374 328.151ZM502.843 316.278L502.874 316.526L502.875 316.526L502.843 316.278ZM504.555 317.375L504.802 317.334L504.802 317.334L504.555 317.375ZM503.272 318.839L503.241 318.591L503.241 318.591L503.272 318.839ZM477.35 344.393L477.1 344.393L477.098 345.045L477.535 344.561L477.35 344.393ZM479.178 342.369L479.363 342.537L479.364 342.537L479.178 342.369ZM481.298 342.136L481.16 342.345L481.16 342.345L481.298 342.136ZM481.57 343.952L481.385 343.784L481.385 343.784L481.57 343.952ZM477.677 348.263L477.491 348.096L477.409 348.186L477.43 348.306L477.677 348.263ZM489.447 365.144L489.312 365.354L489.635 364.979L489.447 365.144ZM485.916 347.778L486.152 347.863L486.209 347.705L486.084 347.592L485.916 347.778ZM484.475 346.476L484.643 346.291L484.643 346.291L484.475 346.476ZM484.533 344.647L484.376 344.453L484.376 344.453L484.533 344.647ZM486.67 344.697L486.502 344.883L486.503 344.883L486.67 344.697ZM487.136 345.118L486.968 345.304L487.201 345.513L487.354 345.241L487.136 345.118ZM488.979 342.421L489.172 342.579L489.173 342.579L488.979 342.421ZM491.085 342.1L491.213 341.886L491.213 341.886L491.085 342.1ZM491.46 343.902L491.653 344.06L491.654 344.06L491.46 343.902ZM490.028 361.06L489.813 361.187L489.987 361.483L490.215 361.226L490.028 361.06ZM490.889 360.089L490.702 359.923L490.702 359.923L490.889 360.089ZM493.008 359.84L493.144 359.63L493.144 359.63L493.008 359.84ZM493.299 361.653L493.112 361.487L493.112 361.487L493.299 361.653ZM491.724 363.429L491.537 363.263L491.393 363.426L491.534 363.592L491.724 363.429ZM507.216 370.33L507.212 370.58L507.214 370.58L507.216 370.33ZM507.976 370.33L507.979 370.58L507.98 370.58L507.976 370.33ZM511.861 369.935L511.908 370.18L512.52 370.064L511.997 369.725L511.861 369.935ZM506.331 365.524L506.506 365.346L506.416 365.257L506.29 365.278L506.331 365.524ZM504.097 365.889L504.136 366.135L504.137 366.135L504.097 365.889ZM502.328 364.859L502.084 364.914L502.084 364.914L502.328 364.859ZM503.53 363.346L503.49 363.1L503.49 363.1L503.53 363.346ZM504.225 363.233L504.265 363.48L504.696 363.41L504.417 363.073L504.225 363.233ZM497.41 339.291L497.659 339.312L497.671 339.172L497.558 339.09L497.41 339.291ZM497.193 339.093L497.38 338.927L497.38 338.927L497.193 339.093ZM492.403 333.702L492.217 333.868L492.217 333.868L492.403 333.702ZM492.691 331.889L492.555 331.679L492.555 331.68L492.691 331.889ZM494.811 332.136L494.623 332.302L494.624 332.302L494.811 332.136ZM497.876 335.586L497.689 335.752L498.036 336.143L498.122 335.628L497.876 335.586ZM500.125 327.191L500.355 327.289L500.355 327.288L500.125 327.191ZM502.061 326.417L502.135 326.178L502.135 326.178L502.061 326.417ZM502.968 328.075L503.198 328.172L503.198 328.172L502.968 328.075ZM500.224 343.7L500.474 343.694V343.694L500.224 343.7ZM502.254 354.336L502.022 354.427L502.172 354.813L502.443 354.5L502.254 354.336ZM503.354 353.066L503.166 352.902L503.165 352.902L503.354 353.066ZM505.471 352.796L505.605 352.585L505.604 352.585L505.471 352.796ZM505.785 354.606L505.974 354.77L505.974 354.77L505.785 354.606ZM503.561 357.175L503.372 357.011L503.26 357.141L503.341 357.292L503.561 357.175ZM515.433 368.939L515.308 369.155L515.41 369.214L515.52 369.173L515.433 368.939ZM521.991 364.957L522.16 365.14L522.332 364.982L522.186 364.8L521.991 364.957ZM520.146 362.655L519.951 362.811L519.951 362.812L520.146 362.655ZM520.539 360.857L520.666 361.072L520.666 361.072L520.539 360.857ZM522.642 361.192L522.837 361.036L522.837 361.036L522.642 361.192ZM523.955 362.83L523.76 362.987L523.958 363.233L524.152 362.984L523.955 362.83ZM513.104 337.364L513.164 337.122L513.013 337.084L512.912 337.204L513.104 337.364ZM509.107 342.136L508.915 341.976L508.915 341.976L509.107 342.136ZM506.997 342.435L506.866 342.648L506.866 342.648L506.997 342.435ZM506.65 340.629L506.841 340.79L506.841 340.789L506.65 340.629ZM509.854 336.803L510.046 336.963L510.35 336.6L509.879 336.554L509.854 336.803ZM526.325 342.575L526.13 342.732L526.393 343.061L526.556 342.672L526.325 342.575ZM526.87 341.27L527.1 341.367L527.1 341.366L526.87 341.27ZM528.801 340.487L528.728 340.726L528.728 340.726L528.801 340.487ZM529.717 342.141L529.486 342.044L529.486 342.045L529.717 342.141ZM528.299 345.537L528.069 345.441L528.068 345.442L528.299 345.537ZM528.294 345.55L528.524 345.649L528.524 345.648L528.294 345.55ZM528.288 345.564L528.059 345.462L528.01 345.573L528.067 345.68L528.288 345.564ZM525.745 365.142L525.557 364.977L525.88 365.352L525.745 365.142ZM534.954 355.481L535.173 355.602L535.265 355.434L535.127 355.301L534.954 355.481ZM532.457 353.078L532.63 352.898L532.63 352.898L532.457 353.078ZM532.582 351.251L532.431 351.052L532.431 351.052L532.582 351.251ZM534.716 351.358L534.89 351.178L534.89 351.178L534.716 351.358ZM536.222 352.808L536.049 352.988L536.317 353.245L536.454 352.901L536.222 352.808ZM537.633 341.396L537.88 341.363L537.86 341.21L537.714 341.16L537.633 341.396ZM533.78 340.078L533.699 340.314L533.699 340.314L533.78 340.078ZM532.937 338.396L533.164 338.501L532.937 338.396ZM534.903 337.675L534.822 337.911L534.822 337.911L534.903 337.675ZM537.017 338.398L536.936 338.635L537.384 338.788L537.257 338.331L537.017 338.398ZM523.179 322.272L523.293 322.049L523.293 322.049L523.179 322.272ZM522.663 320.496L522.868 320.64L522.868 320.639L522.663 320.496ZM524.738 320.055L524.853 319.833L524.853 319.833L524.738 320.055ZM533.054 326.094L532.877 326.27L533.249 326.646L533.303 326.12L533.054 326.094ZM533.308 323.639L533.059 323.613L533.059 323.613L533.308 323.639ZM534.947 322.464L534.966 322.215L534.963 322.214L534.947 322.464ZM536.32 323.867L536.072 323.841L536.072 323.841L536.32 323.867ZM535.765 329.253L535.516 329.228L535.506 329.324L535.564 329.402L535.765 329.253ZM533.257 362.551L533.077 362.377L533.399 362.756L533.257 362.551ZM540.516 356.04L540.705 356.203L540.732 356.172L540.748 356.133L540.516 356.04ZM541.022 355.437L541.16 355.646L541.191 355.625L541.216 355.595L541.022 355.437ZM548.293 338.208L548.542 338.231L548.552 338.133L548.491 338.055L548.293 338.208ZM542.63 330.94L542.828 330.787L542.828 330.786L542.63 330.94ZM543.05 329.146L543.174 329.363L543.174 329.363L543.05 329.146ZM545.147 329.505L544.95 329.658L544.95 329.658L545.147 329.505ZM548.375 333.648L548.177 333.801L548.67 334.433L548.624 333.633L548.375 333.648ZM543.785 319.14L543.998 319.009L543.954 318.939L543.877 318.908L543.785 319.14ZM534.614 315.486L534.522 315.718L534.522 315.718L534.614 315.486ZM533.882 313.766L534.101 313.886L534.101 313.886L533.882 313.766ZM535.89 313.139L535.983 312.907L535.982 312.907L535.89 313.139ZM540.91 315.139L540.817 315.372L541.102 314.979L540.91 315.139ZM528.634 305.451L528.749 305.229L528.748 305.229L528.634 305.451ZM528.118 303.675L528.323 303.819L528.323 303.819L528.118 303.675ZM530.193 303.235L530.079 303.457L530.079 303.457L530.193 303.235ZM542.709 312.858L542.521 313.023L543.1 313.68L542.955 312.816L542.709 312.858ZM542.01 308.68L541.763 308.722L541.763 308.722L542.01 308.68ZM543.293 307.217L543.324 307.465L543.324 307.465L543.293 307.217ZM545.005 308.314L544.758 308.355V308.355L545.005 308.314ZM546.635 318.069L546.882 318.027L546.882 318.027L546.635 318.069ZM546.65 318.241L546.4 318.243L546.401 318.311L546.436 318.369L546.65 318.241ZM551.277 332.027L551.028 332.053L551.116 332.907L551.5 332.139L551.277 332.027ZM553.085 328.419L553.308 328.531L553.308 328.53L553.085 328.419ZM555.07 327.74L554.983 327.974L554.984 327.974L555.07 327.74ZM555.864 329.438L555.641 329.326L555.641 329.326L555.864 329.438ZM551.327 338.496L551.104 338.384L551.104 338.384L551.327 338.496ZM551.295 338.557L551.078 338.432L551.051 338.479L551.046 338.532L551.295 338.557ZM546.728 352.325L546.513 352.197L546.049 352.979L546.847 352.544L546.728 352.325ZM550.849 350.081L550.73 349.861L550.73 349.861L550.849 350.081ZM552.937 350.478L552.736 350.627L552.737 350.628L552.937 350.478ZM552.474 352.264L552.593 352.484L552.593 352.484L552.474 352.264ZM543.149 357.341L543.029 357.121L542.988 357.144L542.958 357.179L543.149 357.341ZM528.902 368.186L528.795 367.96L528.902 368.436L528.902 368.186ZM533.841 368.195L533.841 368.445H533.841L533.841 368.195ZM535.351 369.491L535.101 369.491L535.351 369.491ZM533.835 370.783L533.835 371.033H533.835V370.783ZM522.319 370.762L522.32 370.512H522.32L522.319 370.762ZM522.265 370.761L522.273 370.511L522.232 370.51L522.193 370.522L522.265 370.761ZM507.595 372.921V373.171C507.686 373.171 507.776 373.171 507.867 373.17L507.864 372.92L507.862 372.67C507.773 372.671 507.684 372.671 507.595 372.671V372.921ZM507.326 372.92L507.324 373.17C507.414 373.171 507.504 373.171 507.595 373.171V372.921V372.671C507.506 372.671 507.417 372.671 507.329 372.67L507.326 372.92ZM507.326 372.92L507.328 372.67C502.305 372.644 497.482 371.889 492.996 370.522L492.923 370.761L492.85 371C497.383 372.381 502.254 373.144 507.325 373.17L507.326 372.92ZM492.869 370.762L492.87 371.012C492.89 371.012 492.91 371.012 492.931 371.011L492.923 370.761L492.915 370.511C492.9 370.512 492.884 370.512 492.869 370.512L492.869 370.762ZM481.353 370.783L481.354 371.033L492.87 371.012L492.869 370.762L492.869 370.512L481.353 370.533L481.353 370.783ZM481.35 370.783V371.033H481.353V370.783V370.533H481.35V370.783ZM479.838 369.491L479.588 369.492C479.59 370.379 480.416 371.033 481.35 371.033V370.783V370.533C480.616 370.533 480.089 370.032 480.088 369.491L479.838 369.491ZM481.347 368.195L481.347 367.945C480.411 367.946 479.586 368.604 479.588 369.492L479.838 369.491L480.088 369.491C480.087 368.95 480.612 368.446 481.348 368.445L481.347 368.195ZM486.286 368.186L486.285 367.936L481.347 367.945L481.347 368.195L481.348 368.445L486.286 368.436L486.286 368.186ZM486.286 368.186L486.394 367.96C480.799 365.288 475.962 361.594 472.229 357.178L472.038 357.339L471.847 357.501C475.629 361.974 480.524 365.711 486.178 368.412L486.286 368.186ZM472.038 357.339L472.158 357.12L462.834 352.044L462.715 352.264L462.595 352.483L471.919 357.559L472.038 357.339ZM462.715 352.264L462.834 352.044C462.246 351.724 462.105 351.092 462.452 350.627L462.251 350.478L462.051 350.328C461.499 351.068 461.775 352.036 462.595 352.483L462.715 352.264ZM462.251 350.478L462.452 350.627C462.819 350.133 463.612 349.97 464.22 350.3L464.339 350.08L464.459 349.86C463.655 349.425 462.581 349.614 462.051 350.328L462.251 350.478ZM464.339 350.08L464.22 350.3L468.34 352.543L468.46 352.324L468.58 352.104L464.459 349.861L464.339 350.08ZM468.46 352.324L468.675 352.196C466.201 348.026 464.619 343.409 464.142 338.528L463.893 338.553L463.644 338.577C464.129 343.534 465.736 348.222 468.245 352.451L468.46 352.324ZM463.863 338.495L463.639 338.607C463.651 338.631 463.663 338.654 463.676 338.676L463.893 338.553L464.111 338.429C464.102 338.414 464.094 338.399 464.086 338.383L463.863 338.495ZM459.326 329.438L459.102 329.55L463.639 338.607L463.863 338.495L464.086 338.383L459.549 329.326L459.326 329.438ZM460.12 327.739L460.034 327.504C459.155 327.826 458.693 328.733 459.102 329.55L459.326 329.438L459.549 329.326C459.3 328.828 459.55 328.214 460.206 327.974L460.12 327.739ZM462.105 328.418L462.329 328.306C461.933 327.516 460.893 327.186 460.034 327.505L460.12 327.739L460.207 327.973C460.868 327.729 461.619 328.005 461.882 328.53L462.105 328.418ZM463.913 332.026L464.136 331.914L462.329 328.306L462.105 328.418L461.882 328.53L463.689 332.138L463.913 332.026ZM463.913 332.026L464.161 332.051C464.657 327.242 466.22 322.629 468.754 318.408L468.54 318.279L468.325 318.151C465.755 322.432 464.167 327.116 463.664 332L463.913 332.026ZM468.554 318.068L468.308 318.027C468.293 318.114 468.288 318.2 468.29 318.286L468.54 318.279L468.79 318.273C468.788 318.219 468.792 318.164 468.801 318.109L468.554 318.068ZM470.185 308.314L469.938 308.273L468.308 318.027L468.554 318.068L468.801 318.11L470.431 308.355L470.185 308.314ZM471.896 307.216L471.925 306.968C471.002 306.861 470.084 307.402 469.938 308.273L470.185 308.314L470.431 308.355C470.522 307.813 471.137 307.38 471.868 307.465L471.896 307.216ZM473.18 308.68L473.426 308.721C473.574 307.838 472.856 307.082 471.927 306.968L471.896 307.216L471.866 307.465C472.59 307.553 473.022 308.108 472.933 308.639L473.18 308.68ZM472.472 312.912L472.718 312.954L473.426 308.722L473.18 308.68L472.933 308.639L472.225 312.871L472.472 312.912ZM472.472 312.912L472.66 313.078C473.985 311.569 475.455 310.135 477.063 308.787L476.902 308.596L476.742 308.404C475.115 309.768 473.627 311.22 472.284 312.747L472.472 312.912ZM476.902 308.596L477.062 308.787C477.567 308.366 478.386 308.374 478.876 308.802L479.041 308.614L479.205 308.426C478.528 307.833 477.433 307.827 476.742 308.404L476.902 308.596ZM479.041 308.614L478.876 308.803C479.345 309.212 479.339 309.85 478.859 310.252L479.02 310.444L479.181 310.636C479.894 310.037 479.906 309.038 479.205 308.426L479.041 308.614ZM479.02 310.444L478.859 310.252C477.112 311.717 475.536 313.292 474.141 314.958L474.333 315.118L474.524 315.279C475.9 313.636 477.455 312.082 479.181 310.636L479.02 310.444ZM479.3 313.139L479.207 312.907L474.24 314.886L474.333 315.118L474.425 315.351L479.392 313.372L479.3 313.139ZM481.308 313.766L481.528 313.647C481.108 312.872 480.066 312.567 479.207 312.907L479.3 313.139L479.392 313.372C480.054 313.109 480.808 313.368 481.088 313.885L481.308 313.766ZM480.575 315.486L480.668 315.718C481.538 315.371 481.965 314.451 481.528 313.647L481.308 313.766L481.088 313.886C481.357 314.378 481.128 314.996 480.483 315.254L480.575 315.486ZM471.436 319.128L471.528 319.36L480.668 315.718L480.575 315.486L480.483 315.254L471.343 318.896L471.436 319.128ZM471.436 319.128L471.223 318.997C468.458 323.481 466.86 328.45 466.564 333.635L466.814 333.649L467.063 333.663C467.354 328.565 468.925 323.675 471.648 319.259L471.436 319.128ZM470.043 329.504L469.846 329.351L466.617 333.495L466.814 333.649L467.011 333.802L470.24 329.658L470.043 329.504ZM472.14 329.145L472.264 328.928C471.469 328.476 470.391 328.648 469.845 329.351L470.043 329.504L470.24 329.658C470.619 329.17 471.417 329.021 472.016 329.363L472.14 329.145ZM472.559 330.94L472.757 331.093C473.324 330.365 473.076 329.391 472.264 328.928L472.14 329.145L472.016 329.363C472.595 329.692 472.722 330.325 472.362 330.786L472.559 330.94ZM466.895 338.209L467.092 338.363L472.757 331.093L472.559 330.94L472.362 330.786L466.698 338.056L466.895 338.209ZM466.895 338.209L466.646 338.233C467.247 344.66 469.874 350.604 473.971 355.594L474.165 355.435L474.358 355.276C470.317 350.356 467.735 344.506 467.144 338.186L466.895 338.209ZM474.165 355.435L474.028 355.644C474.23 355.777 474.368 355.95 474.442 356.134L474.674 356.041L474.906 355.948C474.792 355.664 474.585 355.412 474.302 355.226L474.165 355.435ZM474.674 356.041L474.484 356.204C476.583 358.648 479.041 360.851 481.79 362.757L481.932 362.551L482.074 362.346C479.359 360.463 476.933 358.288 474.863 355.878L474.674 356.041ZM474.604 348.145L474.356 348.182C475.19 353.666 477.835 358.665 481.752 362.725L481.932 362.551L482.112 362.378C478.259 358.385 475.667 353.478 474.851 348.107L474.604 348.145ZM474.581 347.991L474.332 348.011C474.337 348.074 474.346 348.136 474.359 348.198L474.604 348.145L474.848 348.091C474.839 348.051 474.833 348.012 474.83 347.972L474.581 347.991ZM474.325 344.455H474.075C474.075 345.664 474.163 346.857 474.333 348.027L474.581 347.991L474.828 347.955C474.661 346.808 474.575 345.64 474.575 344.455H474.325ZM477.35 332.654L477.13 332.535C475.167 336.188 474.075 340.233 474.075 344.455H474.325H474.575C474.575 340.321 475.644 336.356 477.57 332.772L477.35 332.654ZM477.35 325.046H477.1V332.654H477.35H477.6V325.046H477.35ZM478.862 323.752V323.502C477.926 323.502 477.1 324.158 477.1 325.046H477.35H477.6C477.6 324.504 478.126 324.002 478.862 324.002V323.752ZM480.374 325.046H480.624C480.624 324.158 479.798 323.502 478.862 323.502V323.752V324.002C479.598 324.002 480.124 324.504 480.124 325.046H480.374ZM480.374 328.151H480.624V325.046H480.374H480.124V328.151H480.374ZM502.843 316.278L502.813 316.03C493.429 317.178 485.36 321.679 480.181 327.992L480.374 328.151L480.568 328.309C485.66 322.101 493.61 317.66 502.874 316.526L502.843 316.278ZM504.555 317.375L504.802 317.334C504.656 316.465 503.74 315.91 502.811 316.03L502.843 316.278L502.875 316.526C503.601 316.432 504.217 316.871 504.308 317.416L504.555 317.375ZM503.272 318.839L503.302 319.087C504.232 318.973 504.949 318.218 504.802 317.334L504.555 317.375L504.308 317.416C504.397 317.948 503.966 318.502 503.241 318.591L503.272 318.839ZM477.35 344.393L477.6 344.394C477.635 331.78 488.642 320.882 503.302 319.087L503.272 318.839L503.241 318.591C488.392 320.408 477.136 331.469 477.1 344.393L477.35 344.393ZM479.178 342.369L478.992 342.202L477.164 344.226L477.35 344.393L477.535 344.561L479.363 342.537L479.178 342.369ZM481.298 342.136L481.437 341.928C480.677 341.424 479.586 341.541 478.992 342.202L479.178 342.369L479.364 342.537C479.783 342.07 480.596 341.97 481.16 342.345L481.298 342.136ZM481.57 343.952L481.756 344.119C482.377 343.432 482.216 342.443 481.436 341.928L481.298 342.136L481.16 342.345C481.704 342.704 481.785 343.341 481.385 343.784L481.57 343.952ZM477.677 348.263L477.862 348.431L481.756 344.119L481.57 343.952L481.385 343.784L477.491 348.096L477.677 348.263ZM489.447 365.144L489.582 364.934C483.415 360.964 479.1 355.017 477.923 348.221L477.677 348.263L477.43 348.306C478.634 355.261 483.045 361.32 489.312 365.354L489.447 365.144ZM484.912 353.513H484.662C484.662 357.939 486.376 362.025 489.259 365.309L489.447 365.144L489.635 364.979C486.824 361.776 485.162 357.805 485.162 353.513H484.912ZM485.916 347.778L485.681 347.693C485.008 349.56 484.662 351.517 484.662 353.513H484.912H485.162C485.162 351.576 485.497 349.676 486.152 347.863L485.916 347.778ZM484.475 346.476L484.308 346.662L485.749 347.963L485.916 347.778L486.084 347.592L484.643 346.291L484.475 346.476ZM484.533 344.647L484.376 344.453C483.651 345.04 483.618 346.039 484.308 346.662L484.475 346.476L484.643 346.291C484.184 345.877 484.201 345.238 484.69 344.842L484.533 344.647ZM486.67 344.697L486.838 344.512C486.172 343.908 485.077 343.888 484.376 344.453L484.533 344.647L484.69 344.842C485.203 344.428 486.022 344.447 486.502 344.883L486.67 344.697ZM487.136 345.118L487.304 344.933L486.838 344.512L486.67 344.697L486.503 344.883L486.968 345.304L487.136 345.118ZM488.979 342.421L488.785 342.263C488.073 343.136 487.45 344.049 486.918 344.996L487.136 345.118L487.354 345.241C487.872 344.32 488.479 343.43 489.172 342.579L488.979 342.421ZM491.085 342.1L491.213 341.886C490.427 341.417 489.346 341.573 488.785 342.263L488.979 342.421L489.173 342.579C489.565 342.097 490.366 341.963 490.957 342.315L491.085 342.1ZM491.46 343.902L491.654 344.06C492.236 343.344 492.016 342.365 491.213 341.886L491.085 342.1L490.956 342.315C491.524 342.654 491.637 343.288 491.266 343.744L491.46 343.902ZM487.936 353.513H488.186C488.186 350.113 489.382 346.845 491.653 344.06L491.46 343.902L491.266 343.744C488.926 346.613 487.686 349.991 487.686 353.513H487.936ZM490.028 361.06L490.243 360.933C488.927 358.698 488.186 356.178 488.186 353.513H487.936H487.686C487.686 356.272 488.453 358.88 489.813 361.187L490.028 361.06ZM490.889 360.089L490.702 359.923L489.841 360.894L490.028 361.06L490.215 361.226L491.076 360.255L490.889 360.089ZM493.008 359.84L493.144 359.63C492.378 359.134 491.294 359.256 490.702 359.923L490.889 360.089L491.076 360.255C491.494 359.784 492.3 359.679 492.872 360.05L493.008 359.84ZM493.299 361.653L493.486 361.819C494.101 361.126 493.926 360.139 493.144 359.63L493.008 359.84L492.872 360.05C493.419 360.406 493.507 361.042 493.112 361.487L493.299 361.653ZM491.724 363.429L491.911 363.595L493.486 361.819L493.299 361.653L493.112 361.487L491.537 363.263L491.724 363.429ZM507.216 370.33L507.22 370.08C500.932 369.978 495.375 367.31 491.914 363.267L491.724 363.429L491.534 363.592C495.094 367.752 500.791 370.476 507.212 370.58L507.216 370.33ZM507.594 370.332V370.082C507.469 370.082 507.344 370.082 507.219 370.08L507.216 370.33L507.214 370.58C507.34 370.582 507.467 370.582 507.594 370.582V370.332ZM507.976 370.33L507.973 370.08C507.847 370.082 507.721 370.082 507.594 370.082V370.332V370.582C507.723 370.582 507.851 370.582 507.979 370.58L507.976 370.33ZM511.861 369.935L511.815 369.689C510.574 369.925 509.289 370.059 507.972 370.08L507.976 370.33L507.98 370.58C509.326 370.558 510.639 370.421 511.908 370.18L511.861 369.935ZM506.331 365.524L506.155 365.702C507.746 367.269 509.591 368.759 511.725 370.144L511.861 369.935L511.997 369.725C509.89 368.357 508.072 366.888 506.506 365.346L506.331 365.524ZM504.097 365.889L504.137 366.135L506.371 365.771L506.331 365.524L506.29 365.278L504.057 365.642L504.097 365.889ZM503.812 365.911V366.161C503.919 366.161 504.028 366.153 504.136 366.135L504.097 365.889L504.058 365.642C503.975 365.655 503.892 365.661 503.812 365.661V365.911ZM502.328 364.859L502.084 364.914C502.254 365.674 503.012 366.161 503.812 366.161V365.911V365.661C503.189 365.661 502.68 365.285 502.572 364.805L502.328 364.859ZM503.53 363.346L503.49 363.1C502.566 363.25 501.888 364.037 502.084 364.914L502.328 364.859L502.572 364.805C502.455 364.278 502.854 363.71 503.57 363.593L503.53 363.346ZM504.225 363.233L504.185 362.986L503.49 363.1L503.53 363.346L503.57 363.593L504.265 363.48L504.225 363.233ZM497.41 339.291L497.161 339.27C496.562 346.422 497.557 355.585 504.032 363.393L504.225 363.233L504.417 363.073C498.056 355.404 497.066 346.389 497.659 339.312L497.41 339.291ZM497.193 339.093L497.006 339.259C497.083 339.346 497.169 339.424 497.261 339.492L497.41 339.291L497.558 339.09C497.493 339.041 497.433 338.987 497.38 338.927L497.193 339.093ZM492.403 333.702L492.217 333.868L497.006 339.259L497.193 339.093L497.38 338.927L492.59 333.536L492.403 333.702ZM492.691 331.889L492.555 331.68C491.773 332.189 491.602 333.176 492.217 333.868L492.403 333.702L492.59 333.536C492.195 333.09 492.281 332.454 492.828 332.099L492.691 331.889ZM494.811 332.136L494.998 331.97C494.407 331.303 493.319 331.183 492.555 331.679L492.691 331.889L492.827 332.099C493.398 331.728 494.207 331.832 494.623 332.302L494.811 332.136ZM497.876 335.586L498.063 335.42L494.997 331.97L494.811 332.136L494.624 332.302L497.689 335.752L497.876 335.586ZM500.125 327.191L499.895 327.093C499.848 327.204 498.462 330.567 497.629 335.545L497.876 335.586L498.122 335.628C498.947 330.698 500.319 327.374 500.355 327.289L500.125 327.191ZM502.061 326.417L502.135 326.178C501.255 325.907 500.24 326.282 499.895 327.093L500.125 327.191L500.355 327.288C500.581 326.758 501.303 326.445 501.988 326.656L502.061 326.417ZM502.968 328.075L503.198 328.172C503.552 327.335 503.031 326.456 502.135 326.178L502.061 326.417L501.987 326.656C502.663 326.865 502.952 327.471 502.738 327.977L502.968 328.075ZM500.224 343.7L500.474 343.694C500.374 339.44 501.049 335.574 501.752 332.762C502.104 331.356 502.463 330.215 502.735 329.422C502.871 329.025 502.986 328.716 503.067 328.504C503.108 328.398 503.14 328.316 503.162 328.261C503.173 328.233 503.182 328.211 503.188 328.196C503.191 328.189 503.194 328.183 503.195 328.179C503.196 328.177 503.197 328.175 503.198 328.174C503.198 328.173 503.198 328.173 503.198 328.173C503.198 328.172 503.198 328.172 503.198 328.172L502.968 328.075L502.738 327.977C502.703 328.059 499.772 335.087 499.974 343.706L500.224 343.7ZM502.254 354.336L502.487 354.245C501.238 351.053 500.564 347.534 500.474 343.694L500.224 343.7L499.974 343.706C500.065 347.598 500.749 351.175 502.022 354.427L502.254 354.336ZM503.354 353.066L503.165 352.902L502.065 354.173L502.254 354.336L502.443 354.5L503.543 353.23L503.354 353.066ZM505.471 352.796L505.604 352.585C504.834 352.1 503.75 352.228 503.166 352.902L503.354 353.066L503.543 353.23C503.954 352.756 504.761 352.645 505.337 353.008L505.471 352.796ZM505.785 354.606L505.974 354.77C506.579 354.07 506.393 353.086 505.605 352.585L505.471 352.796L505.337 353.007C505.889 353.358 505.984 353.994 505.596 354.443L505.785 354.606ZM503.561 357.175L503.75 357.338L505.974 354.77L505.785 354.606L505.596 354.442L503.372 357.011L503.561 357.175ZM515.433 368.939L515.557 368.722C510.218 365.657 506.29 361.756 503.782 357.057L503.561 357.175L503.341 357.292C505.899 362.086 509.9 366.051 515.308 369.155L515.433 368.939ZM521.991 364.957L521.821 364.773C520.015 366.435 517.814 367.782 515.345 368.704L515.433 368.939L515.52 369.173C518.047 368.229 520.304 366.848 522.16 365.14L521.991 364.957ZM520.146 362.655L519.951 362.812L521.796 365.113L521.991 364.957L522.186 364.8L520.341 362.499L520.146 362.655ZM520.539 360.857L520.413 360.641C519.606 361.114 519.375 362.09 519.951 362.811L520.146 362.655L520.342 362.499C519.976 362.041 520.094 361.408 520.666 361.072L520.539 360.857ZM522.642 361.192L522.837 361.036C522.281 360.341 521.2 360.178 520.413 360.641L520.539 360.857L520.666 361.072C521.257 360.725 522.059 360.864 522.447 361.348L522.642 361.192ZM523.955 362.83L524.15 362.674L522.837 361.036L522.642 361.192L522.447 361.348L523.76 362.987L523.955 362.83ZM527.254 353.513H527.004C527.004 356.896 525.81 360.047 523.758 362.677L523.955 362.83L524.152 362.984C526.266 360.275 527.504 357.017 527.504 353.513H527.254ZM513.104 337.364L513.043 337.607C521.126 339.629 527.004 346.014 527.004 353.513H527.254H527.504C527.504 345.733 521.415 339.186 513.164 337.122L513.104 337.364ZM509.107 342.136L509.299 342.297L513.295 337.525L513.104 337.364L512.912 337.204L508.915 341.976L509.107 342.136ZM507.877 342.677V342.927C508.41 342.927 508.949 342.715 509.299 342.297L509.107 342.136L508.915 341.976C508.675 342.263 508.285 342.427 507.877 342.427V342.677ZM506.997 342.435L506.866 342.648C507.176 342.838 507.531 342.927 507.877 342.927V342.677V342.427C507.615 342.427 507.352 342.359 507.127 342.221L506.997 342.435ZM506.65 340.629L506.458 340.468C505.863 341.177 506.071 342.159 506.866 342.648L506.997 342.435L507.127 342.222C506.567 341.877 506.461 341.242 506.841 340.79L506.65 340.629ZM509.854 336.803L509.663 336.642L506.458 340.468L506.65 340.629L506.841 340.789L510.046 336.963L509.854 336.803ZM507.595 336.692V336.942C508.351 336.942 509.096 336.979 509.83 337.052L509.854 336.803L509.879 336.554C509.129 336.48 508.367 336.442 507.595 336.442V336.692ZM506.083 335.398H505.833C505.833 336.286 506.659 336.942 507.595 336.942V336.692V336.442C506.859 336.442 506.333 335.94 506.333 335.398H506.083ZM507.595 334.105V333.855C506.659 333.855 505.833 334.511 505.833 335.398H506.083H506.333C506.333 334.857 506.859 334.355 507.595 334.355V334.105ZM526.325 342.575L526.52 342.419C522.38 337.245 515.436 333.855 507.595 333.855V334.105V334.355C515.295 334.355 522.091 337.684 526.13 342.732L526.325 342.575ZM526.87 341.27L526.639 341.174L526.094 342.479L526.325 342.575L526.556 342.672L527.1 341.367L526.87 341.27ZM528.801 340.487L528.874 340.248C527.99 339.977 526.976 340.361 526.639 341.174L526.87 341.27L527.1 341.366C527.321 340.835 528.041 340.516 528.728 340.726L528.801 340.487ZM529.717 342.141L529.948 342.238C530.299 341.398 529.77 340.522 528.874 340.248L528.801 340.487L528.728 340.726C529.407 340.933 529.699 341.538 529.486 342.044L529.717 342.141ZM528.299 345.537L528.53 345.634L529.948 342.237L529.717 342.141L529.486 342.045L528.069 345.441L528.299 345.537ZM528.294 345.55L528.524 345.648C528.526 345.643 528.528 345.638 528.53 345.633L528.299 345.537L528.068 345.442C528.067 345.445 528.066 345.448 528.064 345.451L528.294 345.55ZM528.288 345.564L528.516 345.666C528.519 345.66 528.521 345.654 528.524 345.649L528.294 345.55L528.064 345.451C528.063 345.455 528.061 345.459 528.059 345.462L528.288 345.564ZM530.278 353.513H530.528C530.528 350.64 529.806 347.909 528.509 345.447L528.288 345.564L528.067 345.68C529.327 348.074 530.028 350.725 530.028 353.513H530.278ZM525.745 365.142L525.933 365.307C528.814 362.023 530.528 357.938 530.528 353.513H530.278H530.028C530.028 357.804 528.367 361.775 525.557 364.977L525.745 365.142ZM534.954 355.481L534.735 355.36C532.642 359.147 529.493 362.432 525.61 364.932L525.745 365.142L525.88 365.352C529.827 362.811 533.036 359.467 535.173 355.602L534.954 355.481ZM532.457 353.078L532.283 353.258L534.78 355.661L534.954 355.481L535.127 355.301L532.63 352.898L532.457 353.078ZM532.582 351.251L532.431 351.052C531.688 351.616 531.614 352.613 532.283 353.258L532.457 353.078L532.63 352.898C532.189 352.473 532.227 351.835 532.734 351.45L532.582 351.251ZM534.716 351.358L534.89 351.178C534.243 350.556 533.15 350.505 532.431 351.052L532.582 351.251L532.734 351.45C533.262 351.048 534.079 351.092 534.543 351.538L534.716 351.358ZM536.222 352.808L536.396 352.628L534.89 351.178L534.716 351.358L534.543 351.538L536.049 352.988L536.222 352.808ZM537.839 344.455H537.589C537.589 347.343 537.026 350.122 535.99 352.715L536.222 352.808L536.454 352.901C537.514 350.25 538.089 347.409 538.089 344.455H537.839ZM537.633 341.396L537.385 341.43C537.52 342.425 537.589 343.434 537.589 344.455H537.839H538.089C538.089 343.412 538.018 342.38 537.88 341.363L537.633 341.396ZM533.78 340.078L533.699 340.314L537.552 341.633L537.633 341.396L537.714 341.16L533.861 339.841L533.78 340.078ZM532.937 338.396L532.711 338.29C532.325 339.116 532.814 340.011 533.699 340.314L533.78 340.078L533.862 339.841C533.196 339.613 532.929 339.003 533.164 338.501L532.937 338.396ZM534.903 337.675L534.984 337.438C534.118 337.142 533.085 337.49 532.711 338.29L532.937 338.396L533.164 338.501C533.41 337.974 534.152 337.682 534.822 337.911L534.903 337.675ZM537.017 338.398L537.098 338.162L534.984 337.438L534.903 337.675L534.822 337.911L536.936 338.635L537.017 338.398ZM523.179 322.272L523.064 322.494C530.112 326.127 534.947 331.866 536.776 338.465L537.017 338.398L537.257 338.331C535.387 331.581 530.448 325.738 523.293 322.049L523.179 322.272ZM522.663 320.496L522.459 320.352C521.928 321.105 522.232 322.066 523.064 322.494L523.179 322.272L523.293 322.049C522.693 321.741 522.536 321.111 522.868 320.64L522.663 320.496ZM524.738 320.055L524.853 319.833C524.04 319.414 522.968 319.626 522.459 320.352L522.663 320.496L522.868 320.639C523.218 320.141 524.007 319.96 524.624 320.277L524.738 320.055ZM533.054 326.094L533.232 325.918C530.891 323.555 528.077 321.495 524.853 319.833L524.738 320.055L524.624 320.277C527.804 321.917 530.575 323.946 532.877 326.27L533.054 326.094ZM533.308 323.639L533.059 323.613L532.806 326.069L533.054 326.094L533.303 326.12L533.556 323.665L533.308 323.639ZM534.947 322.464L534.963 322.214C534.017 322.155 533.15 322.734 533.059 323.613L533.308 323.639L533.556 323.665C533.613 323.122 534.178 322.666 534.931 322.713L534.947 322.464ZM536.32 323.867L536.569 323.892C536.661 323.004 535.898 322.285 534.966 322.215L534.947 322.464L534.928 322.713C535.658 322.768 536.127 323.305 536.072 323.841L536.32 323.867ZM535.765 329.253L536.014 329.279L536.569 323.892L536.32 323.867L536.072 323.841L535.516 329.228L535.765 329.253ZM540.863 344.455H541.113C541.113 338.884 539.288 333.603 535.966 329.105L535.765 329.253L535.564 329.402C538.825 333.818 540.613 338.996 540.613 344.455H540.863ZM533.257 362.551L533.437 362.724C538.226 357.761 541.113 351.394 541.113 344.455H540.863H540.613C540.613 351.249 537.787 357.496 533.077 362.377L533.257 362.551ZM533.257 362.551L533.399 362.756C536.148 360.851 538.606 358.647 540.705 356.203L540.516 356.04L540.326 355.877C538.256 358.288 535.83 360.463 533.114 362.345L533.257 362.551ZM540.516 356.04L540.748 356.133C540.821 355.95 540.958 355.778 541.16 355.646L541.022 355.437L540.885 355.228C540.604 355.413 540.397 355.664 540.284 355.947L540.516 356.04ZM541.022 355.437L541.216 355.595C545.315 350.605 547.941 344.66 548.542 338.231L548.293 338.208L548.044 338.185C547.454 344.506 544.871 350.357 540.829 355.278L541.022 355.437ZM548.293 338.208L548.491 338.055L542.828 330.787L542.63 330.94L542.433 331.094L548.096 338.362L548.293 338.208ZM542.63 330.94L542.828 330.786C542.468 330.326 542.595 329.693 543.174 329.363L543.05 329.146L542.926 328.929C542.113 329.391 541.865 330.366 542.433 331.094L542.63 330.94ZM543.05 329.146L543.174 329.363C543.771 329.022 544.569 329.17 544.95 329.658L545.147 329.505L545.344 329.351C544.797 328.649 543.72 328.476 542.926 328.929L543.05 329.146ZM545.147 329.505L544.95 329.658L548.177 333.801L548.375 333.648L548.572 333.494L545.344 329.351L545.147 329.505ZM548.375 333.648L548.624 333.633C548.328 328.425 546.725 323.458 543.998 319.009L543.785 319.14L543.571 319.271C546.257 323.652 547.834 328.539 548.125 333.662L548.375 333.648ZM534.614 315.486L534.522 315.718L543.692 319.372L543.785 319.14L543.877 318.908L534.707 315.254L534.614 315.486ZM533.882 313.766L533.662 313.647C533.225 314.451 533.652 315.371 534.522 315.718L534.614 315.486L534.707 315.254C534.062 314.997 533.833 314.378 534.101 313.886L533.882 313.766ZM535.89 313.139L535.982 312.907C535.122 312.567 534.083 312.872 533.662 313.647L533.882 313.766L534.101 313.886C534.383 313.367 535.135 313.11 535.798 313.372L535.89 313.139ZM540.91 315.139L541.002 314.907L535.983 312.907L535.89 313.139L535.798 313.372L540.817 315.372L540.91 315.139ZM540.91 315.139L541.102 314.979C537.88 311.114 533.711 307.787 528.749 305.229L528.634 305.451L528.519 305.673C533.426 308.203 537.542 311.488 540.718 315.3L540.91 315.139ZM528.634 305.451L528.748 305.229C528.148 304.919 527.991 304.29 528.323 303.819L528.118 303.675L527.914 303.531C527.384 304.284 527.687 305.245 528.519 305.673L528.634 305.451ZM528.118 303.675L528.323 303.819C528.673 303.32 529.464 303.139 530.079 303.457L530.193 303.235L530.308 303.013C529.497 302.593 528.423 302.806 527.914 303.532L528.118 303.675ZM530.193 303.235L530.079 303.457C535.015 306.001 539.206 309.257 542.521 313.023L542.709 312.858L542.896 312.692C539.537 308.877 535.296 305.583 530.308 303.013L530.193 303.235ZM542.01 308.68L541.763 308.722L542.462 312.899L542.709 312.858L542.955 312.816L542.257 308.639L542.01 308.68ZM543.293 307.217L543.263 306.968C542.333 307.082 541.616 307.838 541.763 308.722L542.01 308.68L542.257 308.639C542.168 308.108 542.599 307.553 543.324 307.465L543.293 307.217ZM545.005 308.314L545.252 308.273C545.106 307.403 544.191 306.854 543.263 306.968L543.293 307.217L543.324 307.465C544.053 307.375 544.668 307.811 544.758 308.355L545.005 308.314ZM546.635 318.069L546.882 318.027L545.252 308.273L545.005 308.314L544.758 308.355L546.389 318.11L546.635 318.069ZM546.65 318.241L546.9 318.238C546.9 318.168 546.894 318.098 546.882 318.027L546.635 318.069L546.389 318.11C546.396 318.154 546.4 318.199 546.4 318.243L546.65 318.241ZM546.65 318.241L546.436 318.369C548.955 322.574 550.53 327.203 551.028 332.053L551.277 332.027L551.525 332.002C551.02 327.077 549.42 322.377 546.865 318.112L546.65 318.241ZM551.277 332.027L551.5 332.139L553.308 328.531L553.085 328.419L552.861 328.307L551.053 331.915L551.277 332.027ZM553.085 328.419L553.308 328.53C553.57 328.007 554.321 327.73 554.983 327.974L555.07 327.74L555.156 327.505C554.297 327.188 553.255 327.518 552.861 328.307L553.085 328.419ZM555.07 327.74L554.984 327.974C555.64 328.215 555.89 328.829 555.641 329.326L555.864 329.438L556.088 329.55C556.497 328.734 556.035 327.827 555.156 327.505L555.07 327.74ZM555.864 329.438L555.641 329.326L551.104 338.384L551.327 338.496L551.551 338.608L556.088 329.55L555.864 329.438ZM551.327 338.496L551.104 338.384C551.096 338.4 551.087 338.416 551.078 338.432L551.295 338.557L551.512 338.681C551.525 338.657 551.538 338.632 551.551 338.608L551.327 338.496ZM551.295 338.557L551.046 338.532C550.568 343.412 548.986 348.028 546.513 352.197L546.728 352.325L546.943 352.452C549.451 348.224 551.058 343.537 551.544 338.581L551.295 338.557ZM546.728 352.325L546.847 352.544L550.969 350.3L550.849 350.081L550.73 349.861L546.608 352.105L546.728 352.325ZM550.849 350.081L550.969 350.301C551.578 349.969 552.371 350.134 552.736 350.627L552.937 350.478L553.138 350.329C552.609 349.616 551.535 349.423 550.73 349.861L550.849 350.081ZM552.937 350.478L552.737 350.628C553.083 351.093 552.942 351.725 552.354 352.045L552.474 352.264L552.593 352.484C553.414 352.037 553.689 351.069 553.138 350.329L552.937 350.478ZM552.474 352.264L552.354 352.045L543.029 357.121L543.149 357.341L543.268 357.56L552.593 352.484L552.474 352.264ZM543.149 357.341L542.958 357.179C539.225 361.595 534.389 365.288 528.795 367.96L528.902 368.186L529.01 368.412C534.664 365.711 539.559 361.975 543.34 357.502L543.149 357.341ZM533.841 368.195L533.842 367.945L528.903 367.936L528.902 368.186L528.902 368.436L533.841 368.445L533.841 368.195ZM535.351 369.491L535.601 369.492C535.603 368.604 534.778 367.946 533.842 367.945L533.841 368.195L533.841 368.445C534.577 368.446 535.102 368.95 535.101 369.491L535.351 369.491ZM533.838 370.783V371.033C534.773 371.033 535.599 370.379 535.601 369.492L535.351 369.491L535.101 369.491C535.099 370.032 534.573 370.533 533.838 370.533V370.783ZM533.835 370.783V371.033H533.838V370.783V370.533H533.835V370.783ZM522.319 370.762L522.319 371.012L533.835 371.033L533.835 370.783L533.836 370.533L522.32 370.512L522.319 370.762ZM522.265 370.761L522.258 371.011C522.278 371.012 522.298 371.012 522.319 371.012L522.319 370.762L522.32 370.512C522.304 370.512 522.289 370.512 522.273 370.511L522.265 370.761ZM522.265 370.761L522.193 370.522C517.707 371.888 512.885 372.644 507.863 372.67L507.864 372.92L507.866 373.17C512.936 373.143 517.806 372.381 522.338 371L522.265 370.761Z" fill="black"/>
<path d="M586.843 16.0824C600.659 43.1096 586.253 74.6031 554.665 86.4251C523.078 98.247 486.27 85.9207 472.453 58.8935C458.636 31.8662 473.042 0.372742 504.63 -11.4492C536.218 -23.2712 573.026 -10.9449 586.843 16.0824Z" fill="url(#paint0_linear_9033_109231)"/>
<path d="M504.798 21.8711C506.924 26.029 504.708 30.8743 499.849 32.6934C494.989 34.5125 489.326 32.6166 487.2 28.4587C485.074 24.3008 487.29 19.4555 492.15 17.6364C497.009 15.8173 502.672 17.7132 504.798 21.8711Z" fill="url(#paint1_linear_9033_109231)"/>
<path d="M563.453 0.113331C564.674 1.32486 564.443 2.90914 562.938 3.65193C561.433 4.39471 559.223 4.01472 558.003 2.80319C556.782 1.59166 557.012 0.00738168 558.517 -0.735403C560.023 -1.47819 562.232 -1.0982 563.453 0.113331Z" fill="url(#paint2_linear_9033_109231)"/>
<path d="M585.51 38.5049C587.411 39.071 588.209 41.3533 587.294 43.6026C586.378 45.8518 584.096 47.2163 582.196 46.6503C580.296 46.0842 579.497 43.8019 580.412 41.5527C581.328 39.3034 583.61 37.9389 585.51 38.5049Z" fill="url(#paint3_linear_9033_109231)"/>
<path d="M551.257 68.1758C552.599 74.1518 546.968 80.1002 538.682 81.462C530.395 82.8237 522.59 79.083 521.248 73.107C519.907 67.131 525.537 61.1825 533.824 59.8208C542.111 58.4591 549.916 62.1997 551.257 68.1758Z" fill="url(#paint4_linear_9033_109231)"/>
<path d="M465.06 45.3623C466.536 44.9775 469.222 48.8466 471.057 54.0042C472.893 59.1617 473.183 63.6547 471.706 64.0394C470.23 64.4242 467.544 60.5551 465.709 55.3976C463.873 50.24 463.583 45.7471 465.06 45.3623Z" fill="url(#paint5_linear_9033_109231)"/>
<path d="M467 44.8574C469.549 44.1934 473.103 47.8362 474.938 52.9938C476.774 58.1513 476.196 62.8706 473.647 63.5346C471.099 64.1985 467.545 60.5557 465.709 55.3982C463.874 50.2406 464.452 45.5214 467 44.8574Z" fill="url(#paint6_linear_9033_109231)"/>
<path d="M464.83 48.138C465.26 48.026 466.651 50.8635 467.936 54.4757C469.222 58.0878 469.915 61.1068 469.486 61.2188C469.056 61.3307 467.666 58.4932 466.38 54.8811C465.094 51.2689 464.401 48.2499 464.83 48.138Z" fill="#271262"/>
<path d="M517.713 89.0429C517.771 88.3433 522.923 87.863 529.219 87.97C535.516 88.077 540.574 88.7308 540.516 89.4304C540.458 90.1299 535.307 90.6103 529.01 90.5032C522.713 90.3962 517.656 89.7424 517.713 89.0429Z" fill="url(#paint7_linear_9033_109231)"/>
<path d="M517.791 88.1257C517.89 86.9185 523.076 86.0267 529.372 86.1337C535.669 86.2407 540.693 87.3061 540.593 88.5132C540.493 89.7204 535.308 90.6122 529.011 90.5052C522.714 90.3982 517.691 89.3328 517.791 88.1257Z" fill="url(#paint8_linear_9033_109231)"/>
<path d="M520.705 89.6224C520.722 89.4188 524.311 89.3146 528.721 89.3895C533.131 89.4645 536.692 89.6902 536.675 89.8938C536.658 90.0973 533.07 90.2016 528.66 90.1266C524.25 90.0517 520.688 89.8259 520.705 89.6224Z" fill="#2D1D81"/>
<path d="M582.578 67.457C581.351 66.9788 582.205 63.1165 584.487 58.8304C586.768 54.5443 589.612 51.4573 590.84 51.9356C592.067 52.4138 591.213 56.2761 588.931 60.5622C586.65 64.8483 583.806 67.9352 582.578 67.457Z" fill="url(#paint9_linear_9033_109231)"/>
<path d="M580.965 66.8295C578.847 66.0043 578.979 61.8607 581.261 57.5746C583.542 53.2885 587.108 50.4828 589.226 51.3081C591.344 52.1333 591.211 56.2769 588.93 60.563C586.649 64.8491 583.082 67.6548 580.965 66.8295Z" fill="url(#paint10_linear_9033_109231)"/>
<path d="M584.603 65.7536C584.246 65.6145 585.252 63.0682 586.85 60.0663C588.447 57.0645 590.032 54.7438 590.389 54.8829C590.746 55.022 589.741 57.5683 588.143 60.5702C586.545 63.5721 584.96 65.8928 584.603 65.7536Z" fill="#1C113D"/>
<path d="M582.911 7.9728C582.217 8.37777 580.088 6.74049 578.156 4.31584C576.224 1.8912 575.221 -0.402662 575.915 -0.80763C576.61 -1.2126 578.738 0.424675 580.67 2.84932C582.602 5.27397 583.605 7.56783 582.911 7.9728Z" fill="url(#paint11_linear_9033_109231)"/>
<path d="M581.999 8.505C580.801 9.20379 578.264 7.80476 576.332 5.38017C574.4 2.95559 573.805 0.423591 575.003 -0.275201C576.201 -0.973992 578.739 0.42504 580.67 2.84963C582.602 5.27421 583.197 7.80621 581.999 8.505Z" fill="url(#paint12_linear_9033_109231)"/>
<path d="M582.503 6.49864C582.301 6.61647 581.041 5.33541 579.688 3.63733C578.335 1.93924 577.402 0.467143 577.604 0.349315C577.806 0.231488 579.066 1.51254 580.419 3.21063C581.772 4.90872 582.705 6.38081 582.503 6.49864Z" fill="#32187C"/>
<path d="M544.021 30.302C544.021 33.1385 541.333 35.4379 538.018 35.4379C534.703 35.4379 532.016 33.1385 532.016 30.302C532.016 27.4655 534.703 25.166 538.018 25.166C541.333 25.166 544.021 27.4655 544.021 30.302Z" fill="#2B1D53"/>
<path d="M492.158 67.8289C490.651 68.9397 487.675 68.0981 485.511 65.9491C483.347 63.8001 482.815 61.1575 484.322 60.0466C485.829 58.9358 488.805 59.7774 490.968 61.9264C493.132 64.0755 493.665 66.7181 492.158 67.8289Z" fill="#1C113D"/>
<path d="M574.643 60.3584C575.951 61.6408 574.986 64.1921 572.488 66.057C569.99 67.9218 566.905 68.394 565.597 67.1116C564.289 65.8293 565.254 63.2779 567.752 61.4131C570.25 59.5482 573.335 59.076 574.643 60.3584Z" fill="url(#paint13_linear_9033_109231)"/>
<path d="M101.78 260.336C102.463 259.475 103.018 255.28 103.216 254.253C103.806 252.396 104.909 240.658 104.909 237.113C104.909 235.242 105.113 232.83 105.818 231.653C107.066 229.6 109.804 225.381 112.038 224.434C110.796 224.499 106.732 226.488 105.818 227.21C104.773 227.931 103.804 229.147 103.153 230.152C102.342 231.363 102.278 232.699 101.94 234.065C101.228 236.931 101.28 249.587 101.28 252.15C101.28 254.714 101.624 260.291 101.78 260.336Z" fill="white"/>
<path d="M53.0016 284.283C53.7759 282.237 53.2501 273.458 53.7759 269.859C54.0472 268.001 54.6076 266.103 55.3134 264.926C56.5611 262.873 60.8695 260.27 63.1034 259.322C61.8617 259.388 57.7978 261.376 56.8841 262.099C54.3005 263.882 53.6502 265.321 53.0016 267.937C52.6434 269.382 52.502 273.534 52.502 276.097C52.5019 278.661 52.8454 284.238 53.0016 284.283Z" fill="white"/>
<path d="M158.05 262.456C158.519 259.007 158.276 255.315 159.646 252.006C160.507 249.953 163.481 247.35 165.023 246.402C164.166 246.468 161.361 248.456 160.73 249.179C158.634 251.274 158.05 253.716 158.05 256.728C158.05 259.292 157.942 262.412 158.05 262.456Z" fill="white"/>
</g>
<path d="M461.722 236.911C461.507 236.899 461.319 237.038 461.304 237.223C461.274 237.605 461.703 238.783 462.597 239.577C462.876 239.824 463.181 240.014 463.504 240.143C462.927 240.395 462.354 240.595 461.702 240.595C461.7 240.595 461.697 240.595 461.695 240.595C461.479 240.595 461.304 240.745 461.303 240.93C461.303 241.115 461.478 241.266 461.695 241.266H461.702C462.726 241.266 463.546 240.889 464.339 240.525C465.024 240.211 465.67 239.914 466.401 239.884C466.617 239.875 466.784 239.718 466.774 239.533C466.764 239.348 466.582 239.205 466.364 239.214C465.689 239.241 465.098 239.44 464.539 239.678C464.055 239.672 463.602 239.49 463.192 239.137C462.415 238.468 462.079 237.443 462.087 237.268C462.101 237.083 461.938 236.923 461.722 236.911Z" fill="#302EA7" stroke="black" stroke-width="0.2"/>
<path d="M463.448 241.809L463.039 242.16C462.886 242.291 462.886 242.503 463.039 242.634C463.115 242.7 463.216 242.732 463.316 242.732C463.416 242.732 463.517 242.7 463.593 242.634L464.003 242.284C464.156 242.153 464.156 241.94 464.003 241.809C463.85 241.678 463.601 241.678 463.448 241.809Z" fill="#302EA7" stroke="black" stroke-width="0.2"/>
<path d="M463.767 247.104C463.979 247.066 464.114 246.887 464.069 246.706C464.024 246.525 463.815 246.41 463.603 246.448C463.028 246.553 462.575 246.543 462.351 246.506C462.11 245.917 461.795 245.333 460.851 244.945C460.656 244.865 460.422 244.935 460.328 245.102C460.234 245.269 460.316 245.47 460.512 245.55C461.271 245.862 461.448 246.312 461.693 246.934C461.927 247.529 462.218 248.269 463.144 248.969C463.218 249.026 463.311 249.054 463.403 249.054C463.512 249.054 463.62 249.015 463.697 248.94C463.841 248.802 463.825 248.589 463.663 248.467C463.108 248.047 462.833 247.622 462.637 247.202C462.671 247.203 462.704 247.203 462.739 247.203C463.051 247.203 463.405 247.171 463.767 247.104Z" fill="#302EA7" stroke="black" stroke-width="0.2"/>
<path d="M468.3 245.96L467.89 246.31C467.737 246.441 467.737 246.653 467.89 246.784C467.967 246.85 468.067 246.883 468.168 246.883C468.268 246.883 468.368 246.85 468.445 246.784L468.854 246.434C469.008 246.303 469.008 246.091 468.854 245.96C468.701 245.829 468.453 245.829 468.3 245.96Z" fill="#302EA7" stroke="black" stroke-width="0.2"/>
<path d="M449.523 240.814C449.836 240.629 450.352 240.497 450.947 240.429C450.379 241.18 449.918 241.993 449.594 242.826C449.526 243.001 449.637 243.191 449.843 243.25C449.884 243.261 449.926 243.267 449.967 243.267C450.131 243.267 450.284 243.178 450.339 243.037C450.702 242.1 451.253 241.19 451.938 240.376C452.846 240.378 453.779 240.519 454.391 240.827C454.453 240.858 454.522 240.873 454.59 240.873C454.724 240.873 454.855 240.814 454.928 240.708C455.038 240.549 454.976 240.343 454.789 240.249C454.184 239.944 453.373 239.774 452.539 239.72C452.737 239.522 452.942 239.332 453.156 239.151C453.478 238.879 453.808 238.605 454.148 238.335C454.21 238.383 454.275 238.43 454.344 238.476C454.722 238.726 455.193 238.916 455.543 238.96C455.562 238.963 455.582 238.964 455.601 238.964C455.792 238.964 455.959 238.844 455.988 238.678C456.02 238.494 455.872 238.324 455.658 238.297C455.438 238.269 455.049 238.113 454.735 237.882C455.468 237.335 456.246 236.822 457.082 236.403C457.157 236.366 457.232 236.33 457.306 236.295C457.747 236.509 458.188 236.79 458.488 237.129C458.614 237.272 458.707 237.415 458.767 237.559C458.769 237.565 458.771 237.571 458.774 237.576C458.868 237.814 458.874 238.056 458.791 238.306C458.732 238.485 458.853 238.67 459.061 238.721C459.097 238.729 459.133 238.733 459.168 238.733C459.339 238.733 459.497 238.637 459.545 238.489C459.653 238.162 459.659 237.835 459.567 237.517C459.638 237.44 459.747 237.329 459.84 237.234C460.34 236.727 461.074 235.983 461.31 235.272C461.52 235.261 461.732 235.255 461.947 235.255C463.451 235.255 464.834 235.565 466.158 236.045C465.606 236.347 465.126 236.729 464.729 237.044L464.63 237.123C464.472 237.249 464.462 237.461 464.609 237.597C464.687 237.668 464.792 237.704 464.897 237.704C464.992 237.704 465.088 237.675 465.164 237.615L465.263 237.536C465.785 237.121 466.379 236.648 467.04 236.391C468.001 236.797 468.939 237.278 469.878 237.779C470.285 237.996 470.665 238.248 471.019 238.531C470.686 238.767 470.361 239.04 470.052 239.346C469.573 238.875 468.691 238.301 467.856 238.077C467.649 238.022 467.429 238.121 467.365 238.298C467.3 238.474 467.415 238.663 467.622 238.718C468.488 238.95 469.285 239.587 469.556 239.881C468.648 240.957 468.181 242.104 468.266 243.077C468.282 243.254 468.453 243.388 468.657 243.388C468.667 243.388 468.676 243.387 468.686 243.387C468.902 243.373 469.064 243.212 469.048 243.027C468.97 242.135 469.499 240.991 470.464 239.969C470.81 239.603 471.184 239.282 471.564 239.017C472.072 239.519 472.512 240.101 472.878 240.759C472.971 240.926 473.205 240.997 473.4 240.918C473.596 240.838 473.679 240.638 473.586 240.471C473.201 239.778 472.74 239.164 472.207 238.628C472.632 238.409 473.048 238.271 473.424 238.234C473.639 238.213 473.793 238.047 473.768 237.863C473.743 237.678 473.549 237.546 473.334 237.568C472.804 237.62 472.231 237.816 471.661 238.129C471.241 237.78 470.785 237.472 470.293 237.21C469.656 236.87 469.019 236.539 468.374 236.233C468.477 236.25 468.581 236.274 468.687 236.307C468.89 236.371 469.116 236.282 469.19 236.108C469.265 235.934 469.161 235.741 468.957 235.678C468.28 235.465 467.65 235.497 467.077 235.661C465.487 235.019 463.816 234.584 461.947 234.584C461.747 234.584 461.55 234.588 461.356 234.598C461.338 234.524 461.312 234.452 461.274 234.383C461.183 234.214 460.951 234.141 460.754 234.218C460.558 234.296 460.472 234.494 460.561 234.662C459.363 234.799 458.29 235.11 457.309 235.535C456.668 235.269 456.074 235.131 455.799 235.131C455.582 235.131 455.407 235.281 455.407 235.466C455.407 235.652 455.582 235.802 455.799 235.802C455.904 235.802 456.144 235.853 456.445 235.949C455.674 236.355 454.959 236.827 454.28 237.331C454.267 237.291 454.257 237.252 454.252 237.211C454.231 237.026 454.039 236.892 453.823 236.91C453.608 236.929 453.45 237.093 453.472 237.278C453.493 237.459 453.557 237.636 453.661 237.805C453.301 238.09 452.95 238.382 452.604 238.674C452.227 238.994 451.872 239.341 451.542 239.708C450.542 239.748 449.613 239.945 449.078 240.262C448.899 240.367 448.855 240.576 448.978 240.728C449.101 240.881 449.345 240.919 449.523 240.814ZM460.44 235.355C460.152 235.877 459.557 236.481 459.241 236.802C459.229 236.814 459.218 236.825 459.207 236.836C459.177 236.799 459.146 236.761 459.113 236.724C458.847 236.423 458.501 236.162 458.131 235.943C458.881 235.658 459.648 235.463 460.44 235.355Z" fill="#302EA7" stroke="black" stroke-width="0.2"/>
<path d="M470.352 246.253C470.371 246.255 470.389 246.256 470.408 246.256C470.6 246.256 470.768 246.136 470.796 245.968C470.849 245.65 470.715 245.326 470.408 245.034C470.216 244.85 469.832 244.582 469.55 244.582C469.545 244.582 469.541 244.582 469.537 244.582C469.321 244.588 469.151 244.744 469.158 244.929C469.165 245.09 469.304 245.222 469.483 245.248C469.622 245.304 470.065 245.598 470.019 245.873C469.989 246.057 470.138 246.227 470.352 246.253Z" fill="#302EA7" stroke="black" stroke-width="0.2"/>
<path d="M455.487 245.157C454.95 245.295 454 246.093 453.854 246.404C453.774 246.576 453.872 246.771 454.073 246.84C454.121 246.856 454.17 246.864 454.218 246.864C454.372 246.864 454.518 246.786 454.58 246.658C454.691 246.475 455.433 245.871 455.713 245.799C455.921 245.746 456.038 245.559 455.976 245.381C455.913 245.204 455.694 245.104 455.487 245.157Z" fill="#302EA7" stroke="black" stroke-width="0.2"/>
<path d="M457.581 250.715C458.131 251.285 458.755 251.931 459.9 252.395C459.955 252.417 460.012 252.427 460.068 252.427C460.215 252.427 460.356 252.356 460.423 252.235C460.515 252.068 460.432 251.868 460.236 251.788C459.582 251.524 459.125 251.189 458.739 250.836C458.823 250.818 458.909 250.799 458.999 250.779C459.841 250.59 460.889 250.355 461.348 250.828C461.425 250.908 461.537 250.949 461.65 250.949C461.738 250.949 461.827 250.924 461.9 250.872C462.067 250.753 462.089 250.542 461.951 250.399C461.173 249.598 459.802 249.905 458.8 250.129C458.564 250.182 458.337 250.233 458.158 250.26C457.404 249.48 456.611 248.682 454.617 248.561C454.401 248.548 454.213 248.688 454.198 248.872C454.183 249.057 454.346 249.218 454.562 249.231C456.245 249.332 456.834 249.943 457.581 250.715Z" fill="#302EA7" stroke="black" stroke-width="0.2"/>
<path d="M475.623 247.142C475.513 246.983 475.272 246.93 475.086 247.024C475.019 247.057 474.896 247.121 474.739 247.205C474.809 246.696 474.846 246.168 474.846 245.621C474.846 245.143 474.819 244.673 474.764 244.212C475.069 243.74 475.26 243.234 475.17 242.663C475.141 242.479 474.943 242.35 474.729 242.375C474.598 242.39 474.491 242.459 474.434 242.552C474.381 242.363 474.323 242.176 474.26 241.991C474.199 241.813 473.981 241.712 473.773 241.764C473.565 241.816 473.446 242.003 473.507 242.181C473.715 242.783 473.864 243.413 473.955 244.064C473.771 244.319 473.549 244.573 473.321 244.832C473.312 244.842 473.303 244.853 473.293 244.863C473.233 244.797 473.166 244.725 473.09 244.644C472.477 243.987 471.45 242.888 471.828 242.034C471.904 241.861 471.802 241.668 471.6 241.602C471.397 241.536 471.171 241.624 471.094 241.797C470.559 243.008 471.76 244.294 472.477 245.063C472.593 245.187 472.728 245.332 472.811 245.432C472.475 245.852 472.184 246.298 472.046 246.803C471.997 246.984 472.129 247.164 472.34 247.206C472.37 247.212 472.399 247.215 472.429 247.215C472.607 247.215 472.768 247.11 472.81 246.955C472.977 246.342 473.471 245.779 473.948 245.235C473.982 245.196 474.017 245.157 474.051 245.118C474.058 245.284 474.062 245.452 474.062 245.621C474.062 246.347 473.995 247.037 473.865 247.689C473.182 248.082 472.442 248.543 472.254 248.792C472.136 248.948 472.188 249.156 472.37 249.256C472.436 249.293 472.509 249.31 472.583 249.31C472.711 249.31 472.837 249.256 472.912 249.157C472.973 249.081 473.242 248.892 473.615 248.658C473.415 249.284 473.148 249.869 472.814 250.408C472.647 250.678 472.463 250.937 472.262 251.185C471.62 251.349 471.016 251.352 470.44 251.195C469.567 250.956 468.829 250.379 468.204 249.771C469.012 249.61 469.878 249.513 470.719 249.441C470.934 249.423 471.091 249.258 471.07 249.074C471.048 248.889 470.855 248.755 470.641 248.773C468.218 248.981 465.581 249.397 464.398 250.913C464.278 251.067 464.326 251.275 464.506 251.378C464.573 251.416 464.649 251.435 464.724 251.435C464.85 251.435 464.974 251.382 465.05 251.286C465.543 250.655 466.38 250.245 467.369 249.969C468.116 250.732 469.03 251.514 470.202 251.834C470.567 251.934 470.939 251.984 471.317 251.984C471.385 251.984 471.453 251.982 471.521 251.979C470.791 252.663 469.908 253.24 468.877 253.702C468.639 253.809 468.402 253.919 468.159 254.033C467.505 253.886 466.787 253.578 466.229 253.298C466.549 253.213 466.881 253.109 467.222 252.978C467.42 252.901 467.508 252.703 467.419 252.534C467.33 252.365 467.097 252.29 466.9 252.366C465.819 252.783 464.805 252.91 463.99 253.012C463.266 253.102 462.641 253.18 462.177 253.432C461.994 253.531 461.94 253.738 462.056 253.895C462.13 253.995 462.257 254.051 462.387 254.051C462.459 254.051 462.532 254.034 462.597 253.999C462.919 253.824 463.442 253.758 464.104 253.676C464.433 253.634 464.793 253.589 465.178 253.524C465.417 253.662 465.93 253.945 466.55 254.21C466.784 254.31 467.009 254.397 467.226 254.471C465.541 255.256 463.799 255.988 461.946 255.988C460.358 255.988 458.921 255.79 457.647 255.399C457.709 255.111 457.733 254.82 457.717 254.527C457.885 254.505 458.072 254.466 458.284 254.422C458.871 254.3 459.6 254.149 460.197 254.326C460.402 254.387 460.625 254.294 460.696 254.119C460.767 253.944 460.659 253.753 460.454 253.692C459.64 253.451 458.75 253.635 458.1 253.77C457.947 253.802 457.759 253.84 457.615 253.861C457.542 253.569 457.431 253.276 457.282 252.985C456.807 252.059 456.048 251.362 455.754 251.17C455.582 251.058 455.336 251.086 455.204 251.233C455.073 251.38 455.106 251.591 455.278 251.703C455.399 251.783 456.112 252.372 456.563 253.254C456.729 253.577 456.839 253.897 456.896 254.213C456.898 254.232 456.901 254.25 456.905 254.267C456.953 254.562 456.952 254.854 456.905 255.141C456.394 254.943 455.912 254.71 455.461 254.443C455.284 254.337 455.039 254.375 454.916 254.527C454.792 254.679 454.836 254.888 455.014 254.994C455.542 255.307 456.108 255.577 456.71 255.802C456.628 255.995 456.523 256.186 456.397 256.375C456.289 256.536 456.354 256.741 456.541 256.833C456.603 256.863 456.67 256.878 456.736 256.878C456.872 256.878 457.004 256.817 457.077 256.709C457.222 256.493 457.343 256.272 457.439 256.048C458.783 256.454 460.29 256.659 461.945 256.659C464.21 256.659 466.314 255.667 468.172 254.793C468.208 254.775 468.244 254.759 468.28 254.741C468.484 254.773 468.677 254.79 468.858 254.79C469.049 254.79 469.228 254.772 469.393 254.736C469.603 254.69 469.73 254.507 469.677 254.328C469.655 254.257 469.609 254.197 469.548 254.153C470.847 253.527 471.919 252.724 472.75 251.755C473.335 251.573 473.94 251.284 474.57 250.883C474.743 250.772 474.78 250.562 474.65 250.414C474.521 250.265 474.276 250.234 474.102 250.345C473.909 250.467 473.721 250.577 473.535 250.676C474.012 249.893 474.361 249.028 474.577 248.087C474.877 247.918 475.188 247.751 475.484 247.602C475.671 247.508 475.733 247.302 475.623 247.142Z" fill="#302EA7" stroke="black" stroke-width="0.2"/>
<path d="M452.862 251.993C453.051 251.516 453.304 251.11 453.591 250.839C453.736 250.701 453.724 250.489 453.563 250.365C453.402 250.24 453.154 250.251 453.009 250.389C452.768 250.617 452.561 250.899 452.388 251.208C452.165 250.831 451.919 250.45 451.68 250.08C451.035 249.081 450.375 248.057 450.045 246.977C450.168 246.618 450.319 246.31 450.495 246.039C450.506 246.049 450.516 246.058 450.528 246.068C451.094 246.562 452.273 247.589 452.273 248.364C452.273 248.549 452.449 248.699 452.665 248.699C452.882 248.699 453.057 248.549 453.057 248.364C453.057 247.314 451.776 246.198 451.087 245.598C451.04 245.557 450.991 245.514 450.946 245.474C451.523 244.878 452.26 244.495 453.073 244.072C453.216 243.998 453.361 243.923 453.507 243.845C453.691 243.748 453.747 243.541 453.633 243.383C453.519 243.226 453.277 243.177 453.093 243.275C452.95 243.351 452.807 243.425 452.666 243.499C451.734 243.983 450.828 244.454 450.138 245.274C450.135 245.278 450.132 245.281 450.129 245.284C450.127 245.287 450.126 245.289 450.124 245.291C450.021 245.414 449.924 245.545 449.832 245.685C449.831 245.664 449.83 245.642 449.83 245.621C449.83 245.253 449.863 244.877 449.928 244.501C449.96 244.317 449.812 244.147 449.597 244.12C449.384 244.093 449.184 244.219 449.152 244.403C449.082 244.811 449.046 245.221 449.046 245.621C449.046 246.088 449.116 246.539 449.236 246.978C449.058 247.558 448.943 248.247 448.908 249.076C448.901 249.261 449.07 249.416 449.286 249.423C449.291 249.423 449.296 249.423 449.301 249.423C449.511 249.423 449.685 249.281 449.692 249.1C449.704 248.82 449.725 248.559 449.754 248.313C450.109 249.033 450.554 249.724 450.994 250.405C451.299 250.878 451.588 251.325 451.842 251.775C451.897 251.873 451.954 251.97 452.013 252.065C451.723 252.937 451.679 253.813 451.907 254.17C451.978 254.281 452.112 254.345 452.251 254.345C452.315 254.345 452.379 254.331 452.439 254.304C452.629 254.215 452.699 254.011 452.595 253.848C452.545 253.766 452.511 253.422 452.603 252.905C452.896 253.274 453.22 253.618 453.571 253.935C453.648 254.004 453.752 254.039 453.855 254.039C453.952 254.039 454.05 254.008 454.125 253.947C454.282 253.819 454.289 253.607 454.14 253.472C453.654 253.035 453.226 252.539 452.862 251.993Z" fill="#302EA7" stroke="black" stroke-width="0.2"/>
<path d="M464.461 245.569C464.728 245.797 465.079 245.911 465.43 245.911C465.78 245.911 466.131 245.797 466.398 245.569L466.901 245.139C467.025 245.032 467.094 244.891 467.094 244.74C467.094 244.59 467.025 244.448 466.901 244.341L465.895 243.482C465.771 243.375 465.606 243.316 465.429 243.316C465.253 243.316 465.088 243.375 464.963 243.482L464.461 243.912C463.927 244.368 463.927 245.112 464.461 245.569L464.461 245.569ZM465.016 244.386L465.43 244.032L466.257 244.74L465.843 245.094C465.615 245.29 465.244 245.29 465.016 245.094C464.787 244.899 464.787 244.581 465.016 244.386Z" fill="#302EA7" stroke="black" stroke-width="0.2"/>
<path d="M451.57 242.167C451.414 242.295 451.409 242.507 451.559 242.641C451.636 242.709 451.738 242.744 451.841 242.744C451.939 242.744 452.037 242.713 452.113 242.65C452.341 242.463 452.805 242.379 453.077 242.421C453.29 242.454 453.494 242.333 453.533 242.151C453.572 241.969 453.43 241.794 453.217 241.761C452.747 241.688 452.009 241.805 451.57 242.167Z" fill="#302EA7" stroke="black" stroke-width="0.2"/>
<path d="M458.886 248.614C458.963 248.681 459.065 248.715 459.167 248.715C459.266 248.715 459.364 248.684 459.441 248.621C459.596 248.491 459.599 248.279 459.449 248.146C459.058 247.802 458.214 246.071 458.703 245.044C458.999 244.423 459.116 243.319 459.009 242.164C458.954 241.573 458.752 240.128 458.063 239.472C457.918 239.335 457.67 239.324 457.509 239.447C457.348 239.571 457.335 239.784 457.48 239.921C457.841 240.265 458.127 241.145 458.227 242.217C458.279 242.778 458.274 243.329 458.22 243.8C457.482 242.715 456.368 242.305 455.705 242.06C455.55 242.003 455.417 241.954 455.325 241.911C455.135 241.82 454.897 241.879 454.792 242.041C454.686 242.203 454.755 242.407 454.944 242.497C455.07 242.557 455.221 242.612 455.395 242.677C456.197 242.972 457.401 243.416 457.927 244.905C457.4 246.227 458.315 248.111 458.886 248.614Z" fill="#302EA7" stroke="black" stroke-width="0.2"/>
<path d="M401.801 241.816C404.665 240.056 407.906 239.866 411.165 240.433C414.426 240.999 417.689 242.32 420.585 243.562H420.586C423.765 244.899 427.07 245.848 430.627 246.49L431.342 246.615C433.783 247.017 435.56 246.714 437.118 245.971C438.668 245.231 439.994 244.057 441.533 242.74C442.019 242.324 442.474 242.286 442.733 242.402C442.862 242.46 442.946 242.556 442.979 242.67C443.013 242.783 443.001 242.934 442.903 243.112C440.916 245.718 438.425 247.233 435.548 247.787C432.663 248.342 429.379 247.934 425.811 246.672C423.96 246.017 422.089 245.19 420.19 244.373C418.294 243.557 416.373 242.751 414.432 242.146C410.547 240.936 406.565 240.522 402.515 242.428L402.509 242.431C402.18 242.604 401.86 242.506 401.699 242.336C401.619 242.251 401.586 242.157 401.595 242.076C401.603 242 401.652 241.904 401.799 241.817L401.801 241.816Z" fill="#302EA7" stroke="black" stroke-width="0.3"/>
<path d="M381.988 227.454C382.13 227.485 382.237 227.557 382.294 227.671L382.296 227.675C383.785 230.413 385.721 232.734 388.216 234.312C390.712 235.89 393.76 236.717 397.464 236.48C403.956 236.104 410.011 234.033 416.032 232.347L416.031 232.346C427.159 229.295 439.046 227.46 447.302 235.661L447.692 236.06C447.91 236.287 447.975 236.53 447.947 236.751C447.919 236.976 447.79 237.193 447.596 237.354C447.234 237.654 446.66 237.75 446.142 237.343L446.039 237.255C441.639 232.642 436.052 231.406 429.998 231.724C423.948 232.041 417.407 233.913 411.088 235.529C404.756 237.149 398.651 238.513 393.435 237.849C390.83 237.517 388.452 236.68 386.379 235.119C384.306 233.558 382.53 231.267 381.14 228.014H381.141L381.136 228.006L381.108 227.927C381.093 227.851 381.114 227.783 381.161 227.719C381.23 227.625 381.356 227.541 381.515 227.488C381.672 227.436 381.844 227.423 381.988 227.454Z" fill="#302EA7" stroke="black" stroke-width="0.3"/>
<path d="M476.586 252.229C475.657 254.164 472.714 256.921 468.655 258.326C466.904 258.932 467.158 259.901 468.066 259.811C471.01 259.519 475.316 256.841 477.237 253.819C479.224 250.692 478.113 249.049 476.586 252.229Z" fill="#302EA7" stroke="black" stroke-width="0.2"/>
<path d="M459.192 259.888C457.186 259.962 453.913 259.163 451.59 257.326C450.589 256.534 449.769 256.973 450.083 257.452C451.103 259.007 454.652 260.593 457.905 260.739C461.271 260.891 462.488 259.767 459.192 259.888Z" fill="#302EA7" stroke="black" stroke-width="0.2"/>
<defs>
<filter id="filter0_i_9033_109231" x="0" y="0" width="626" height="376.139" filterUnits="userSpaceOnUse" color-interpolation-filters="sRGB">
<feFlood flood-opacity="0" result="BackgroundImageFix"/>
<feBlend mode="normal" in="SourceGraphic" in2="BackgroundImageFix" result="shape"/>
<feColorMatrix in="SourceAlpha" type="matrix" values="0 0 0 0 0 0 0 0 0 0 0 0 0 0 0 0 0 0 127 0" result="hardAlpha"/>
<feOffset dy="6.1386"/>
<feGaussianBlur stdDeviation="8.1848"/>
<feComposite in2="hardAlpha" operator="arithmetic" k2="-1" k3="1"/>
<feColorMatrix type="matrix" values="0 0 0 0 0 0 0 0 0 0 0 0 0 0 0 0 0 0 0.25 0"/>
<feBlend mode="normal" in2="shape" result="effect1_innerShadow_9033_109231"/>
</filter>
<linearGradient id="paint0_linear_9033_109231" x1="497.715" y1="-25.2974" x2="541.273" y2="91.423" gradientUnits="userSpaceOnUse">
<stop stop-color="#0083FF"/>
<stop offset="1" stop-color="#302EA7"/>
</linearGradient>
<linearGradient id="paint1_linear_9033_109231" x1="494.464" y1="17.1525" x2="497.549" y2="33.1743" gradientUnits="userSpaceOnUse">
<stop stop-color="#1C113D"/>
<stop offset="1" stop-color="#302EA7"/>
</linearGradient>
<linearGradient id="paint2_linear_9033_109231" x1="560.167" y1="-1.05038" x2="561.003" y2="4.01399" gradientUnits="userSpaceOnUse">
<stop stop-color="#32187C"/>
<stop offset="1" stop-color="#302EA7"/>
</linearGradient>
<linearGradient id="paint3_linear_9033_109231" x1="583.243" y1="38.4828" x2="585.223" y2="46.4844" gradientUnits="userSpaceOnUse">
<stop stop-color="#32187C"/>
<stop offset="1" stop-color="#302EA7"/>
</linearGradient>
<linearGradient id="paint4_linear_9033_109231" x1="533.824" y1="59.8208" x2="537.414" y2="81.6701" gradientUnits="userSpaceOnUse">
<stop stop-color="#1C113D"/>
<stop offset="1" stop-color="#302EA7"/>
</linearGradient>
<linearGradient id="paint5_linear_9033_109231" x1="467.701" y1="45.5719" x2="475.219" y2="60.7889" gradientUnits="userSpaceOnUse">
<stop stop-color="#32187C"/>
<stop offset="1" stop-color="#302EA7"/>
</linearGradient>
<linearGradient id="paint6_linear_9033_109231" x1="469.415" y1="45.0166" x2="475.644" y2="61.7315" gradientUnits="userSpaceOnUse">
<stop stop-color="#32187C"/>
<stop offset="1" stop-color="#302EA7"/>
</linearGradient>
<linearGradient id="paint7_linear_9033_109231" x1="527.293" y1="87.9874" x2="527.358" y2="90.5764" gradientUnits="userSpaceOnUse">
<stop stop-color="#32187C"/>
<stop offset="1" stop-color="#302EA7"/>
</linearGradient>
<linearGradient id="paint8_linear_9033_109231" x1="527.37" y1="86.1803" x2="527.562" y2="90.6081" gradientUnits="userSpaceOnUse">
<stop stop-color="#1C113D"/>
<stop offset="1" stop-color="#302EA7"/>
</linearGradient>
<linearGradient id="paint9_linear_9033_109231" x1="585.959" y1="52.0835" x2="591.146" y2="65.9277" gradientUnits="userSpaceOnUse">
<stop stop-color="#32187C"/>
<stop offset="1" stop-color="#302EA7"/>
</linearGradient>
<linearGradient id="paint10_linear_9033_109231" x1="584.195" y1="51.3633" x2="588.781" y2="65.8951" gradientUnits="userSpaceOnUse">
<stop stop-color="#2B1961"/>
<stop offset="1" stop-color="#302EA7"/>
</linearGradient>
<linearGradient id="paint11_linear_9033_109231" x1="578.819" y1="-0.756954" x2="581.08" y2="7.633" gradientUnits="userSpaceOnUse">
<stop stop-color="#32187C"/>
<stop offset="1" stop-color="#302EA7"/>
</linearGradient>
<linearGradient id="paint12_linear_9033_109231" x1="577.844" y1="-0.339911" x2="580.016" y2="8.35552" gradientUnits="userSpaceOnUse">
<stop stop-color="#32187C"/>
<stop offset="1" stop-color="#302EA7"/>
</linearGradient>
<linearGradient id="paint13_linear_9033_109231" x1="569.304" y1="59.74" x2="570.753" y2="67.763" gradientUnits="userSpaceOnUse">
<stop stop-color="#21183C"/>
<stop offset="1" stop-color="#302EA7"/>
</linearGradient>
</defs>
</svg>
