<svg width="626" height="370" viewBox="0 0 626 370" fill="none" xmlns="http://www.w3.org/2000/svg">
<g filter="url(#filter0_i_9033_109349)">
<path d="M606.857 114.332C578.124 70.4416 513.901 43.197 455.907 55.2152C424.313 61.7943 396.664 78.6331 364.793 84.1695C337.745 88.7743 309.623 84.9584 285.692 73.4366C250.71 56.4571 228.38 24.567 192.379 9.17247C142.764 -12.0731 78.1684 5.59743 42.6136 41.5394C-41.5856 126.656 9.71903 249.21 103.285 311.21C150.751 342.664 178.026 353.557 246.646 366.376C304.936 377.313 404.082 361.39 461.143 346.566C518.205 331.743 570.671 301.224 600.682 257.922C630.693 214.62 635.606 158.217 606.857 114.332Z" fill="#F1F1FA"/>
</g>
<mask id="mask0_9033_109349" style="mask-type:alpha" maskUnits="userSpaceOnUse" x="0" y="0" width="626" height="370">
<path d="M606.857 114.332C578.124 70.4416 513.901 43.197 455.907 55.2152C424.313 61.7943 396.664 78.6331 364.793 84.1695C337.745 88.7743 309.623 84.9584 285.692 73.4366C250.71 56.4571 228.38 24.567 192.379 9.17247C142.764 -12.0731 78.1684 5.59743 42.6136 41.5394C-41.5856 126.656 9.71903 249.21 103.285 311.21C150.751 342.664 178.026 353.557 246.646 366.376C304.936 377.313 404.082 361.39 461.143 346.566C518.205 331.743 570.671 301.224 600.682 257.922C630.693 214.62 635.606 158.217 606.857 114.332Z" fill="#F1F1FA"/>
</mask>
<g mask="url(#mask0_9033_109349)">
<path d="M447.089 317.789L453.91 320.123L54.271 413.061C-63.6653 402.564 -289.089 369.281 -247.292 320.123C-195.045 258.677 -136.383 221.809 1.10797 221.809C166.576 221.809 188.638 229.357 447.089 317.789Z" fill="#BBBBD6"/>
<path d="M492.776 275.496C564.604 275.496 622.466 288.837 683.321 353.038L488.786 428.078C360.426 416.683 177.929 428.912 223.42 375.55C280.284 308.847 343.134 275.496 492.776 275.496Z" fill="#BBBBD6" stroke="#F1F1FA" stroke-width="3.98616"/>
<path d="M216.359 186.538C216.359 187.128 216.15 187.705 215.758 188.196C215.367 188.686 214.81 189.068 214.159 189.294C213.508 189.519 212.792 189.577 212.101 189.461C211.411 189.345 210.777 189.059 210.28 188.641C209.783 188.223 209.446 187.69 209.31 187.111C209.175 186.532 209.248 185.932 209.52 185.387C209.792 184.843 210.25 184.378 210.837 184.052C211.425 183.726 212.114 183.554 212.818 183.557C213.285 183.557 213.747 183.634 214.177 183.784C214.608 183.934 214.999 184.154 215.328 184.431C215.657 184.708 215.917 185.037 216.094 185.398C216.271 185.76 216.361 186.147 216.359 186.538Z" fill="#263238"/>
<path d="M233.368 174.838C235.333 174.838 236.925 173.503 236.925 171.856C236.925 170.21 235.333 168.875 233.368 168.875C231.403 168.875 229.811 170.21 229.811 171.856C229.811 173.503 231.403 174.838 233.368 174.838Z" fill="#263238"/>
<path d="M185.351 223.286C185.354 223.876 185.149 224.454 184.76 224.946C184.371 225.438 183.817 225.822 183.167 226.05C182.517 226.278 181.801 226.339 181.11 226.225C180.419 226.112 179.783 225.829 179.284 225.413C178.785 224.996 178.445 224.465 178.306 223.887C178.167 223.308 178.237 222.708 178.506 222.162C178.774 221.616 179.23 221.15 179.816 220.822C180.401 220.494 181.089 220.318 181.794 220.318C182.26 220.317 182.722 220.392 183.154 220.54C183.585 220.688 183.978 220.907 184.308 221.182C184.639 221.458 184.901 221.786 185.08 222.147C185.259 222.508 185.351 222.895 185.351 223.286Z" fill="#263238"/>
<path d="M7.82715 291.689C4.72531 291.733 1.67875 292.413 -1.0459 293.672L-1.04883 293.673C-7.52928 296.782 -10.9404 303.354 -10.9912 312.614V312.615C-10.9911 325.856 -6.09239 336.104 4.26367 343.717L4.34766 343.777L4.44531 343.745C12.6417 341.013 20.3494 337.344 27.3506 332.845L27.3516 332.846C30.5232 330.831 33.114 328.24 34.9268 325.264C36.7396 322.287 37.7274 319.003 37.8135 315.657V315.652C37.8134 307.403 32.2524 299.773 22.8828 295.2H22.8838C18.5211 292.988 13.5431 291.779 8.44922 291.689H7.82715ZM225.042 225.32C222.963 190.413 198.65 156.335 163.09 138.479C132.257 122.985 92.7582 118.746 51.8896 126.522C26.5025 131.357 -8.08929 142.827 -28.4854 170.057C-50.4598 199.405 -44.5252 235.844 -26.3545 252.802C-19.8496 258.88 -10.3819 260.806 -0.0888672 260.792C10.2074 260.778 21.3737 258.821 31.3086 257.091L31.3076 257.09L37.8496 255.961L37.8486 255.96C43.2068 255.067 52.6436 252.266 63.7764 248.571C74.9143 244.875 87.7645 240.28 99.9561 235.793C112.148 231.306 123.683 226.927 132.19 223.664C136.444 222.032 139.942 220.679 142.386 219.731C143.608 219.258 144.567 218.885 145.226 218.629C145.554 218.501 145.808 218.403 145.982 218.336C146.012 218.325 146.039 218.313 146.063 218.304L147.779 223.713C147.573 223.79 147.222 223.925 146.746 224.112C146.039 224.39 145.041 224.787 143.788 225.285C141.281 226.282 137.751 227.688 133.486 229.375C124.957 232.749 113.487 237.248 101.376 241.848C89.2642 246.448 76.5116 251.149 65.416 254.929C54.316 258.71 44.8884 261.563 39.4189 262.475C38.3728 262.644 37.3099 262.825 36.2324 263.013L32.958 263.592C21.9957 265.521 9.68194 267.682 -1.90527 267.482C-13.4921 267.283 -24.3212 264.724 -32.3369 257.242C-43.9591 246.377 -50.4311 230.693 -50.5488 213.067C-50.6776 196.687 -45.395 180.592 -35.2803 166.566C-13.7502 137.881 22.0587 125.576 48.8418 120.269L50.1104 120.021C93.0179 111.861 134.616 116.382 167.227 132.719V132.718C204.939 151.764 230.683 187.973 232.971 224.935L232.972 224.942C233.155 226.818 235.411 253.782 218.193 284.303C207.86 302.584 192.476 318.543 173.312 330.855L173.311 330.856C149.424 346.358 118.87 357.326 82.3984 363.618L80.6572 363.914C73.9281 365.034 67.0835 365.597 60.2227 365.593C52.9045 365.592 45.6076 364.929 38.459 363.618C23.6029 360.88 11.9787 356.859 3.12207 351.367L3.04688 351.32L2.96094 351.346C-7.77144 354.484 -19.0087 356.239 -30.3662 356.553L-31.4658 356.579C-69.6445 357.44 -104.208 347.445 -146.598 318.706C-148.613 315.095 -150.557 311.285 -152.433 307.278C-111.728 334.749 -67.7201 350.704 -31.6768 349.943C-22.4241 349.739 -13.2429 348.517 -4.37012 346.307L-3.99805 346.214L-4.28711 345.962C-14.1043 337.384 -19.0544 326.18 -18.9873 312.56V312.559C-18.9873 305.1 -17.0752 299.694 -14.3818 295.776C-11.8558 292.103 -8.63557 289.727 -5.63672 288.196L-5.04004 287.901C3.9133 283.596 16.1892 284.178 26.9707 289.441C38.8576 295.252 45.8915 305.052 45.8428 315.648C45.7615 319.998 44.5044 324.277 42.1621 328.164C39.966 331.808 36.8694 335.019 33.0801 337.584L32.3125 338.089C26.1186 342.071 19.4058 345.454 12.3027 348.172L11.8584 348.342L12.29 348.54C32.6805 357.915 56.3318 361.038 79.1709 357.372H79.1719C115.119 351.393 145.158 340.704 168.437 325.597L168.436 325.596C186.659 313.86 201.297 298.663 211.14 281.251C220.829 264.111 225.599 245.311 225.071 226.354L225.042 225.452V225.32Z" fill="#0083FF" stroke="black" stroke-width="0.4"/>
<path d="M9.72363 355.186C8.58885 354.92 7.52076 354.484 6.57085 353.9C4.17276 352.631 1.89041 351.214 -0.257399 349.661C-2.44025 348.151 -4.47554 346.498 -6.34381 344.716C-7.18455 344.016 -7.85456 343.186 -8.31641 342.271C-8.21525 342.271 -7.42285 343.119 -5.90546 344.391C-4.38807 345.663 -2.23001 347.358 0.265252 349.124C2.76051 350.89 5.13774 352.416 6.89116 353.448C7.88327 353.97 8.82982 354.551 9.72363 355.186Z" fill="#263238"/>
<path d="M18.5627 351.061C17.2481 351 15.9599 350.726 14.7692 350.256C11.8468 349.247 9.11944 347.881 6.67646 346.2C4.22277 344.539 2.01023 342.642 0.0842478 340.549C-0.777495 339.705 -1.47197 338.751 -1.97266 337.723C-1.8715 337.723 -1.0285 338.683 0.539471 340.195C2.58789 342.162 4.84513 343.968 7.28341 345.593C9.6771 347.235 12.298 348.63 15.0895 349.747C17.1464 350.651 18.5964 350.948 18.5627 351.061Z" fill="#263238"/>
<path d="M196.362 305.143C195.678 306.242 194.853 307.274 193.9 308.222C189.57 312.966 184.577 317.259 179.03 321.008C177.928 321.832 176.718 322.548 175.422 323.142C176.412 322.259 177.477 321.437 178.608 320.683C180.632 319.172 183.38 317.038 186.28 314.566C189.179 312.094 191.641 309.706 193.394 307.968C194.3 306.967 195.292 306.023 196.362 305.143Z" fill="white"/>
<path d="M265.74 227.83L250.751 163.265C250.416 162.039 249.526 160.97 248.267 160.284C247.009 159.598 245.482 159.349 244.009 159.589C242.536 159.83 241.232 160.54 240.373 161.572C239.513 162.603 239.166 163.874 239.404 165.115L240.096 168.054L209.09 174.44C205.803 175.115 202.763 176.456 200.238 178.346C197.713 180.235 195.78 182.615 194.608 185.276L175.91 189.133C172.799 189.775 170.119 191.425 168.459 193.722C166.799 196.019 166.296 198.774 167.059 201.382L168.745 207.033L150.452 210.819C149.24 211.07 148.098 211.518 147.093 212.138C146.087 212.758 145.237 213.538 144.591 214.434C143.946 215.329 143.517 216.322 143.329 217.357C143.141 218.391 143.198 219.446 143.497 220.462C143.796 221.478 144.331 222.434 145.071 223.277C145.811 224.119 146.742 224.831 147.81 225.373C148.879 225.914 150.064 226.273 151.298 226.431C152.533 226.588 153.792 226.54 155.004 226.29L173.314 222.517L174.612 226.939C175.378 229.547 177.348 231.793 180.089 233.183C182.83 234.574 186.117 234.996 189.229 234.357L208.264 230.429V230.302C210.758 232.089 213.724 233.354 216.917 233.99C220.11 234.626 223.437 234.616 226.625 233.961L254.14 228.31L254.46 229.723C254.795 230.949 255.686 232.017 256.944 232.703C258.202 233.389 259.729 233.638 261.202 233.398C262.676 233.158 263.98 232.447 264.839 231.416C265.698 230.384 266.045 229.114 265.807 227.872L265.74 227.83Z" fill="#0083FF"/>
<path d="M265.742 227.831C265.859 228.185 265.91 228.552 265.893 228.919C265.871 230.013 265.408 231.068 264.578 231.914C263.896 232.597 263.007 233.115 262.005 233.413C261.003 233.711 259.924 233.779 258.88 233.609C257.858 233.427 256.913 233.021 256.14 232.433C255.366 231.845 254.794 231.095 254.479 230.261C254.26 229.639 254.159 229.003 253.99 228.353L254.209 228.467L233.978 232.705L227.925 233.976C225.782 234.492 223.562 234.749 221.333 234.739C216.452 234.661 211.755 233.163 208.047 230.501L208.553 230.233V230.346L208.637 230.614H208.317C201.893 231.928 195.166 233.44 187.933 234.782C186.004 234.989 184.044 234.816 182.209 234.276C180.374 233.737 178.714 232.845 177.362 231.674C175.96 230.465 174.935 228.985 174.378 227.365C173.855 225.754 173.417 224.143 172.928 222.519L173.383 222.759L157.94 226.022C156.608 226.263 155.343 226.602 153.91 226.785C152.084 226.972 150.232 226.727 148.563 226.079C146.893 225.431 145.473 224.405 144.462 223.117C143.451 221.83 142.889 220.331 142.84 218.79C142.79 217.249 143.255 215.727 144.182 214.395C144.963 213.316 146.014 212.393 147.263 211.688C148.512 210.983 149.929 210.513 151.415 210.312L168.646 206.766L168.342 207.176C168.005 206.003 167.651 204.788 167.28 203.559C166.843 202.297 166.533 201.007 166.353 199.702C166.122 197.009 167.143 194.347 169.202 192.271C170.209 191.251 171.439 190.402 172.827 189.77C174.21 189.175 175.685 188.747 177.211 188.498L194.509 184.938L194.239 185.15C195.889 181.453 198.954 178.318 202.956 176.235C204.907 175.239 207.036 174.509 209.261 174.074L215.668 172.746L240.013 167.758L239.744 168.112C239.558 167.349 239.39 166.572 239.204 165.809C238.964 165.03 238.901 164.22 239.019 163.421C239.17 162.631 239.54 161.882 240.099 161.233C240.657 160.584 241.39 160.054 242.237 159.684C243.084 159.315 244.022 159.117 244.977 159.106C245.932 159.095 246.876 159.271 247.735 159.621C248.576 159.943 249.317 160.422 249.902 161.023C250.487 161.623 250.899 162.327 251.107 163.082L254.8 179.061C257.093 189.092 259.099 197.851 260.751 205.099C262.403 212.346 263.668 217.998 264.561 221.911C264.983 223.833 265.303 225.316 265.522 226.347C265.624 226.842 265.708 227.209 265.758 227.492C265.774 227.623 265.774 227.756 265.758 227.887C265.702 227.764 265.662 227.636 265.64 227.506C265.64 227.223 265.472 226.856 265.354 226.376L264.258 221.939C263.331 218.04 261.982 212.361 260.262 205.169C258.542 197.978 256.502 189.177 254.142 179.16C252.962 174.149 251.709 168.832 250.382 163.209C250.197 162.544 249.833 161.922 249.319 161.391C248.805 160.86 248.154 160.433 247.415 160.144C246.653 159.84 245.817 159.69 244.974 159.706C244.131 159.722 243.304 159.904 242.56 160.237C241.815 160.569 241.174 161.043 240.688 161.621C240.202 162.198 239.884 162.863 239.761 163.562C239.641 164.295 239.699 165.039 239.929 165.752C240.115 166.515 240.3 167.278 240.469 168.055V168.338L240.131 168.408L215.803 173.452C211.605 174.427 207.086 174.865 203.326 176.857C199.46 178.86 196.496 181.881 194.897 185.447L194.812 185.616H194.61L177.312 189.191C175.857 189.422 174.449 189.826 173.13 190.392C171.843 190.986 170.699 191.776 169.758 192.723C167.831 194.658 166.875 197.145 167.095 199.66C167.268 200.927 167.573 202.18 168.005 203.403C168.359 204.647 168.73 205.862 169.067 207.034L169.168 207.359L168.764 207.444L151.634 210.99C150.248 211.159 148.924 211.584 147.758 212.234C146.592 212.884 145.612 213.742 144.89 214.748C144.058 215.968 143.645 217.357 143.699 218.761C143.753 220.165 144.272 221.529 145.196 222.701C146.121 223.873 147.416 224.806 148.937 225.398C150.457 225.989 152.144 226.215 153.809 226.051C155.09 225.909 156.439 225.556 157.754 225.302L173.181 222.137L173.552 222.067L173.636 222.363C174.125 223.988 174.564 225.627 175.069 227.195C175.591 228.718 176.552 230.111 177.868 231.25C179.139 232.355 180.699 233.197 182.426 233.71C184.152 234.222 185.998 234.391 187.815 234.202C194.913 232.874 201.758 231.377 208.148 230.091L207.929 230.416V230.303L207.693 229.498L208.435 230.035C212.034 232.619 216.594 234.073 221.333 234.146C223.511 234.162 225.68 233.914 227.773 233.411L233.826 232.182L254.058 228.071H254.243V228.226C254.412 228.876 254.513 229.54 254.715 230.119C254.918 230.69 255.25 231.223 255.693 231.688C256.516 232.527 257.649 233.113 258.913 233.355C259.722 233.494 260.557 233.485 261.361 233.329C262.165 233.172 262.919 232.871 263.571 232.447C264.223 232.023 264.758 231.485 265.139 230.871C265.519 230.257 265.736 229.581 265.775 228.89C265.785 228.537 265.774 228.183 265.742 227.831Z" fill="#263238"/>
<path d="M254.744 228.174C254.525 228.174 250.917 214.808 246.685 198.25C242.453 181.692 239.182 168.214 239.418 168.172C239.654 168.13 243.245 181.523 247.494 198.095C251.743 214.667 254.98 228.131 254.744 228.174Z" fill="#263238"/>
<path d="M208.204 230.26C207.985 230.26 204.832 220.243 201.022 207.796C197.212 195.349 194.43 185.191 194.649 185.191C194.868 185.191 198.021 195.208 201.831 207.683C205.641 220.158 208.423 230.26 208.204 230.26Z" fill="#263238"/>
<path d="M173.277 222.523C172.041 220.074 171.141 217.515 170.597 214.894C169.79 212.329 169.17 209.724 168.742 207.096C169.97 209.551 170.864 212.115 171.406 214.739C172.214 217.3 172.839 219.9 173.277 222.523Z" fill="#263238"/>
<path d="M189.912 188.994C189.912 189.092 188.108 189.318 185.208 189.827C183.758 190.081 182.038 190.406 180.15 190.844C178.119 191.281 176.16 191.927 174.317 192.766C172.445 193.478 170.968 194.761 170.186 196.354C169.807 197.746 169.773 199.189 170.085 200.593C170.456 203.037 170.945 204.534 170.827 204.563C170.141 203.329 169.692 202.014 169.495 200.663C169.111 199.192 169.111 197.67 169.495 196.199C169.795 195.309 170.378 194.503 171.181 193.868C172.005 193.205 172.929 192.635 173.929 192.172C175.826 191.296 177.856 190.64 179.965 190.223C181.887 189.813 183.64 189.544 185.023 189.347C186.627 189.048 188.271 188.929 189.912 188.994Z" fill="white"/>
<path d="M234.242 171.856C233.736 172.06 233.196 172.199 232.64 172.265C231.612 172.477 230.094 172.774 228.223 173.113L213.622 175.685C210.977 176.146 208.415 176.897 206.002 177.917C204.047 178.769 202.324 179.953 200.944 181.393C199.71 182.754 198.852 184.327 198.432 185.999C198.344 185.527 198.385 185.044 198.55 184.586C198.921 183.324 199.592 182.137 200.522 181.096C201.893 179.555 203.648 178.282 205.665 177.366C208.118 176.271 210.747 175.476 213.471 175.006C219.203 173.975 224.379 173.212 228.156 172.633C230.027 172.35 231.528 172.138 232.623 171.997C233.155 171.9 233.698 171.853 234.242 171.856Z" fill="white"/>
<path d="M165.537 210.614C164.559 211.17 163.449 211.542 162.283 211.702C160.176 212.182 157.225 212.38 154.039 212.945C152.567 213.196 151.143 213.614 149.807 214.189C148.728 214.659 147.753 215.28 146.924 216.026C146.208 216.767 145.591 217.573 145.086 218.428C145.16 217.417 145.648 216.459 146.468 215.715C147.287 214.864 148.295 214.154 149.436 213.624C150.812 212.963 152.302 212.486 153.853 212.211C157.107 211.631 160.074 211.518 162.148 211.165C164.222 210.812 165.486 210.487 165.537 210.614Z" fill="white"/>
<path d="M246.877 160.865C246.877 160.978 246.253 160.964 245.36 161.162C244.221 161.421 243.196 161.951 242.409 162.688C241.651 163.454 241.187 164.395 241.077 165.386C240.976 166.149 241.077 166.658 240.959 166.672C240.841 166.686 240.538 166.234 240.487 165.372C240.43 164.229 240.887 163.11 241.769 162.236C242.665 161.376 243.907 160.823 245.259 160.681C246.287 160.582 246.894 160.78 246.877 160.865Z" fill="white"/>
<path d="M471.691 237.178C473.231 238.755 489.277 255.009 513.625 272.223C538.984 290.152 573.369 309.137 609.758 313.649C629.001 316.04 642.431 314.422 652.733 310.956C663.034 307.491 670.193 302.182 676.886 297.224C682.892 292.77 688.7 288.465 695.95 286.189C703.192 283.917 711.892 283.666 723.679 287.364C734.064 290.633 738.902 296.038 741.018 302.273C743.141 308.531 742.533 315.65 741.95 322.377C741.277 330.225 740.64 337.607 743.404 343.826C746.179 350.068 752.354 355.096 765.182 358.318C772.441 360.14 780.259 359.091 788.245 356.15C796.231 353.21 804.397 348.374 812.359 342.604C828.284 331.064 843.427 315.766 854.729 304.353C862.766 296.258 868.335 290.403 872.781 287.33L878.805 291.357C877.37 292.791 874.81 295.186 871.702 298.124C868.469 301.181 864.648 304.824 860.903 308.577V308.578C849.386 320.228 835.2 334.557 819.96 345.975C804.715 357.396 788.447 365.878 772.767 365.878C769.624 365.886 766.497 365.532 763.472 364.828L762.868 364.684C746.891 360.674 739.367 353.852 735.979 346.132C732.582 338.393 733.32 329.711 733.97 321.917C734.593 314.672 734.924 308.718 733.291 304.014C731.648 299.282 728.031 295.84 720.848 293.58C711.371 290.605 704.66 290.555 698.832 292.361C693.015 294.164 688.098 297.811 682.212 302.172C675.198 307.371 667.355 313.189 655.986 317.056C644.619 320.922 629.711 322.843 608.576 320.218C586.691 317.495 551.317 307.801 507.997 277.05L506.552 276.025C491.725 265.459 477.989 253.861 465.489 241.357L471.691 237.178Z" fill="#0083FF" stroke="black" stroke-width="0.4"/>
<path d="M653.914 310.458C653.914 310.458 653.576 310.727 652.902 311.08C651.957 311.605 650.971 312.077 649.952 312.493C646.581 313.875 643.019 314.9 639.347 315.545C635.677 316.178 631.927 316.42 628.186 316.266C627.056 316.216 625.931 316.117 624.814 315.969C624.397 315.939 623.988 315.858 623.6 315.729C623.6 315.616 625.387 315.729 628.219 315.729C635.617 315.76 642.941 314.489 649.716 311.998C652.295 311.009 653.846 310.289 653.914 310.458Z" fill="white"/>
<path d="M472.608 242.882C470.88 244.476 468.467 245.429 465.899 245.532C463.332 245.636 460.821 244.88 458.918 243.433L444.115 232.13L457.165 220.107L471.951 231.41C473.853 232.858 474.99 234.881 475.114 237.032C475.237 239.183 474.336 241.287 472.608 242.882Z" fill="#0083FF"/>
<path d="M472.602 242.883C473.099 242.274 473.555 241.642 473.968 240.99C475.009 239.146 475.172 237.039 474.423 235.099C473.916 233.756 472.991 232.552 471.742 231.609L467.275 228.261C464.122 225.859 460.615 223.217 456.889 220.406H457.462L450.937 226.424L444.413 232.428V231.948L454.731 239.817L459.148 243.222C460.383 244.171 461.895 244.829 463.532 245.13C465.912 245.566 468.401 245.228 470.495 244.183C471.233 243.775 471.943 243.332 472.619 242.855C472.079 243.461 471.41 243.978 470.647 244.381C468.52 245.555 465.926 245.976 463.431 245.553C461.683 245.267 460.058 244.594 458.727 243.604C457.327 242.558 455.844 241.428 454.259 240.255L443.856 232.386L443.553 232.16L443.839 231.906L450.347 225.887L456.872 219.897L457.142 219.643L457.445 219.869L467.764 227.794L472.181 231.199C473.49 232.214 474.446 233.508 474.946 234.943C475.679 236.981 475.424 239.179 474.238 241.061C473.839 241.751 473.284 242.37 472.602 242.883Z" fill="#263238"/>
<path d="M397.814 175.014L372.288 157.325C371.812 156.995 371.418 156.59 371.128 156.132C370.839 155.674 370.661 155.173 370.603 154.658C370.545 154.142 370.609 153.622 370.791 153.127C370.973 152.632 371.27 152.172 371.664 151.773C372.058 151.374 372.542 151.044 373.088 150.802C373.634 150.559 374.232 150.41 374.848 150.361C375.463 150.313 376.084 150.366 376.674 150.519C377.265 150.671 377.814 150.92 378.29 151.25L403.799 168.939L397.814 175.014Z" fill="#0083FF"/>
<path d="M373.798 200.852L348.306 183.163C347.828 182.834 347.433 182.429 347.142 181.972C346.851 181.515 346.671 181.014 346.612 180.498C346.552 179.983 346.615 179.462 346.795 178.967C346.976 178.471 347.272 178.011 347.665 177.611C348.058 177.21 348.541 176.879 349.087 176.635C349.634 176.392 350.232 176.242 350.848 176.193C351.464 176.144 352.085 176.199 352.676 176.352C353.267 176.506 353.816 176.756 354.291 177.088L379.817 194.762L373.798 200.852Z" fill="#0083FF"/>
<g opacity="0.6">
<path opacity="0.6" d="M397.812 175.016L372.286 157.327C371.81 156.997 371.416 156.592 371.127 156.134C370.837 155.676 370.659 155.175 370.601 154.66C370.543 154.144 370.607 153.624 370.789 153.129C370.971 152.634 371.268 152.174 371.662 151.775C372.056 151.376 372.54 151.046 373.086 150.804C373.632 150.561 374.23 150.412 374.846 150.363C375.461 150.315 376.082 150.368 376.672 150.521C377.263 150.673 377.812 150.922 378.288 151.252L403.797 168.941L397.812 175.016Z" fill="white"/>
</g>
<g opacity="0.6">
<path opacity="0.6" d="M373.8 200.853L348.308 183.165C347.83 182.836 347.435 182.431 347.144 181.974C346.853 181.517 346.673 181.016 346.614 180.5C346.554 179.985 346.616 179.464 346.797 178.969C346.978 178.473 347.273 178.013 347.667 177.613C348.059 177.212 348.543 176.881 349.089 176.637C349.636 176.394 350.234 176.244 350.85 176.195C351.466 176.146 352.087 176.201 352.678 176.354C353.269 176.508 353.818 176.758 354.293 177.09L379.819 194.764L373.8 200.853Z" fill="white"/>
</g>
<path d="M397.811 175.012C397.928 174.849 398.057 174.694 398.199 174.546L399.345 173.302L403.611 168.796V169.092L391.623 160.926L384.121 155.755L380.091 152.93L378.017 151.517C377.385 151.061 376.604 150.776 375.775 150.698C375.075 150.622 374.363 150.694 373.704 150.906C373.045 151.118 372.459 151.464 371.998 151.913C371.553 152.351 371.238 152.871 371.08 153.431C370.921 153.991 370.924 154.575 371.088 155.134C371.25 155.66 371.562 156.145 371.998 156.547C372.474 156.965 372.987 157.352 373.533 157.705L376.702 159.909L387.628 167.609L395.029 172.893L397.052 174.306C397.31 174.479 397.552 174.668 397.777 174.871C397.525 174.749 397.288 174.607 397.069 174.447L395.046 173.034C393.174 171.777 390.612 170.067 387.51 167.962L376.281 160.319L373.044 158.101C372.453 157.72 371.89 157.309 371.358 156.872C370.644 156.225 370.189 155.408 370.055 154.535C369.921 153.661 370.115 152.775 370.61 151.998C371.105 151.221 371.876 150.593 372.817 150.2C373.758 149.808 374.821 149.67 375.859 149.808C376.845 149.914 377.774 150.252 378.54 150.782L380.597 152.195L384.61 155.021L392.079 160.234L403.88 168.555L404.083 168.697L403.914 168.852L399.345 173.317L398.131 174.447C398.053 174.646 397.945 174.836 397.811 175.012Z" fill="#263238"/>
<path d="M373.806 200.851C373.921 200.684 374.056 200.528 374.211 200.385C374.514 200.046 374.885 199.636 375.357 199.142L379.623 194.635V194.932L367.635 186.752L360.133 181.595L356.103 178.769L354.03 177.357C353.384 176.91 352.601 176.625 351.77 176.537C351.069 176.467 350.358 176.543 349.699 176.757C349.041 176.972 348.455 177.318 347.994 177.766C347.546 178.203 347.231 178.724 347.076 179.285C346.92 179.846 346.928 180.43 347.1 180.987C347.259 181.511 347.566 181.996 347.994 182.4C348.476 182.814 348.994 183.196 349.545 183.545L352.698 185.763L363.64 193.462L371.041 198.746L373.064 200.159C373.325 200.325 373.562 200.515 373.772 200.724C373.772 200.724 373.536 200.597 373.081 200.3L371.041 198.958L363.505 193.886L352.293 186.243L349.056 184.011C348.457 183.638 347.893 183.227 347.37 182.782C346.845 182.28 346.474 181.679 346.291 181.03C346.086 180.367 346.075 179.673 346.26 179.006C346.445 178.339 346.82 177.72 347.353 177.201C347.91 176.677 348.611 176.275 349.396 176.029C350.18 175.782 351.024 175.7 351.855 175.788C352.84 175.895 353.769 176.233 354.535 176.763C355.227 177.258 355.918 177.724 356.609 178.176L360.622 181.002L368.091 186.201L379.893 194.536L380.078 194.677L379.926 194.833C378.004 196.684 376.47 198.181 375.34 199.283L374.143 200.428C373.975 200.738 373.806 200.866 373.806 200.851Z" fill="#263238"/>
<path d="M455.816 197.434L456.491 196.756C457.916 195.318 458.655 193.488 458.564 191.62C458.474 189.752 457.561 187.979 456.002 186.642C454.442 185.306 452.347 184.501 450.12 184.383C447.894 184.265 445.695 184.843 443.947 186.004L406.585 159.924L363.846 202.774L402.084 228.204C400.898 229.757 400.431 231.619 400.769 233.441C401.108 235.262 402.229 236.917 403.922 238.094C405.734 239.35 408.062 239.962 410.406 239.798C412.751 239.635 414.925 238.708 416.465 237.218C421.862 240.63 428.634 242.145 435.343 241.441C442.051 240.736 448.168 237.868 452.394 233.446L458.531 227.032C462.627 222.725 464.624 217.277 464.121 211.785C463.617 206.294 460.65 201.166 455.816 197.434Z" fill="#0083FF"/>
<path d="M455.815 197.436L456.135 197.676L457.028 198.397C457.523 198.779 457.98 199.195 458.394 199.64L459.22 200.488L460.063 201.519C461.553 203.32 462.691 205.309 463.435 207.41C464.557 210.582 464.802 213.927 464.151 217.19C463.499 220.454 461.969 223.55 459.675 226.243C458.31 227.868 456.725 229.408 455.174 231.089C453.61 232.864 451.879 234.532 449.998 236.076C445.723 239.427 440.22 241.469 434.386 241.869C427.926 242.339 421.487 240.8 416.295 237.545H416.818C415.24 239.052 413.043 240.006 410.664 240.216C409.428 240.325 408.178 240.226 406.988 239.925C405.798 239.624 404.692 239.127 403.734 238.464C401.966 237.232 400.795 235.501 400.441 233.597C400.087 231.693 400.575 229.746 401.812 228.122L401.897 228.56L372.24 208.738L363.591 202.974L363.254 202.762L363.524 202.48C379.102 186.939 393.652 172.331 406.314 159.672L406.55 159.432L406.82 159.629L444.097 185.78H443.81C445.173 184.882 446.812 184.324 448.536 184.173C450.261 184.022 452.002 184.283 453.557 184.926C455.112 185.568 456.419 186.567 457.326 187.806C458.232 189.044 458.702 190.473 458.681 191.926C458.649 193.45 458.06 194.929 456.995 196.164C456.724 196.476 456.432 196.773 456.118 197.054L455.798 197.351C455.798 197.351 456.202 196.927 456.894 196.108C457.887 194.851 458.415 193.377 458.411 191.87C458.406 190.681 458.062 189.511 457.408 188.457C456.754 187.403 455.809 186.495 454.651 185.809C453.185 184.903 451.415 184.409 449.593 184.396C447.57 184.376 445.599 184.939 444.013 185.992L443.861 186.091L443.709 185.992L406.28 159.997H406.786L364.164 202.946V202.451L372.797 208.216L402.386 227.995L402.672 228.178L402.47 228.433C401.326 229.914 400.866 231.694 401.176 233.44C401.486 235.185 402.546 236.775 404.156 237.913C405.893 239.116 408.123 239.703 410.369 239.547C412.615 239.391 414.7 238.506 416.177 237.079L416.413 236.867L416.683 237.037C421.495 240.047 427.413 241.549 433.41 241.283C439.406 241.018 445.103 239 449.509 235.582C451.343 234.054 453.034 232.41 454.567 230.665C456.135 228.998 457.753 227.444 459.102 225.861C462.116 222.33 463.795 218.122 463.922 213.781C464.048 209.441 462.616 205.169 459.81 201.519C459.524 201.152 459.254 200.798 458.984 200.473L458.175 199.626C457.771 199.169 457.332 198.735 456.86 198.326L456 197.577C455.865 197.483 455.803 197.436 455.815 197.436Z" fill="#263238"/>
<path d="M413.043 198.255L386.68 179.986L382.414 184.309L408.777 202.578L413.043 198.255Z" fill="#E0E0E0"/>
<path d="M455.814 197.434C455.399 198.022 454.926 198.58 454.398 199.101C453.454 200.16 452.054 201.658 450.301 203.495C446.811 207.182 441.871 212.197 436.358 217.693C430.845 223.189 425.939 228.063 422.212 231.751L417.93 235.989C417.424 236.53 416.859 237.031 416.244 237.486C416.659 236.898 417.133 236.34 417.66 235.819C418.605 234.76 420.004 233.262 421.757 231.426C425.247 227.738 430.187 222.723 435.7 217.298L449.846 203.17L454.145 198.931C454.644 198.389 455.203 197.887 455.814 197.434Z" fill="#263238"/>
<path d="M443.932 185.949C443.491 186.571 442.983 187.157 442.415 187.701C441.386 188.803 439.869 190.385 437.997 192.321C434.221 196.192 428.927 201.476 423.026 207.268C417.125 213.061 411.831 218.203 407.852 222.089C405.964 223.897 404.48 225.409 403.232 226.553C402.689 227.12 402.092 227.65 401.445 228.135C401.905 227.521 402.417 226.935 402.98 226.384C404.008 225.282 405.509 223.699 407.397 221.764C411.173 217.893 416.467 212.609 422.368 206.816L437.542 192.01L442.162 187.532C442.703 186.967 443.295 186.438 443.932 185.949Z" fill="#263238"/>
<path d="M379.467 124.111H367.292L373.362 110.199L354.816 131.505H366.991L360.921 145.418L379.467 124.111Z" fill="#BBBBD6"/>
<path d="M290.478 139.625H272.159L281.293 165.297L253.387 125.98H271.706L262.572 100.308L290.478 139.625Z" fill="#BBBBD6"/>
</g>
<defs>
<filter id="filter0_i_9033_109349" x="0" y="0" width="626" height="375.626" filterUnits="userSpaceOnUse" color-interpolation-filters="sRGB">
<feFlood flood-opacity="0" result="BackgroundImageFix"/>
<feBlend mode="normal" in="SourceGraphic" in2="BackgroundImageFix" result="shape"/>
<feColorMatrix in="SourceAlpha" type="matrix" values="0 0 0 0 0 0 0 0 0 0 0 0 0 0 0 0 0 0 127 0" result="hardAlpha"/>
<feOffset dy="5.62608"/>
<feGaussianBlur stdDeviation="7.50145"/>
<feComposite in2="hardAlpha" operator="arithmetic" k2="-1" k3="1"/>
<feColorMatrix type="matrix" values="0 0 0 0 0 0 0 0 0 0 0 0 0 0 0 0 0 0 0.25 0"/>
<feBlend mode="normal" in2="shape" result="effect1_innerShadow_9033_109349"/>
</filter>
</defs>
</svg>
