<svg width="626" height="370" viewBox="0 0 626 370" fill="none" xmlns="http://www.w3.org/2000/svg">
<g filter="url(#filter0_i_9033_109435)">
<path d="M187.48 30.1487C78.3272 82.3226 -103.65 279.004 75.3665 361.644C160.046 400.735 217.442 290.135 336.227 287.328C455.013 284.521 516.364 322.271 585.81 295.96C631.703 278.572 646.576 207.977 585.81 132.032C497.628 21.8229 336.02 -40.8521 187.48 30.1487Z" fill="#F1F1FA"/>
</g>
<mask id="mask0_9033_109435" style="mask-type:alpha" maskUnits="userSpaceOnUse" x="0" y="0" width="626" height="370">
<path d="M187.48 30.1487C78.3272 82.3226 -103.65 279.004 75.3665 361.644C160.046 400.735 217.442 290.135 336.227 287.328C455.013 284.521 516.364 322.271 585.81 295.96C631.703 278.572 646.576 207.977 585.81 132.032C497.628 21.8229 336.02 -40.8521 187.48 30.1487Z" fill="#F1F1FA"/>
</mask>
<g mask="url(#mask0_9033_109435)">
<path d="M541.298 301.678L548.932 304.26L101.679 407.119C-30.3089 395.502 -282.59 358.665 -235.813 304.26C-177.342 236.255 -111.69 195.451 42.1817 195.451C227.364 195.451 252.054 203.805 541.298 301.678Z" fill="#BBBBD6"/>
<path d="M662.257 215.779C742.643 215.779 807.399 230.544 875.504 301.598L657.791 384.649C514.138 372.038 309.898 385.572 360.809 326.514C424.448 252.691 494.786 215.779 662.257 215.779Z" fill="#BBBBD6" stroke="#F1F1FA" stroke-width="4.34928"/>
<path d="M347.028 139.863C359.506 139.909 371.498 144.058 380.358 151.464C389.228 158.877 394.256 168.978 394.203 179.57L391.97 616.142C391.947 621.053 390.829 625.907 388.686 630.457L388.243 631.363C385.812 636.171 382.273 640.514 377.845 644.152C373.417 647.79 368.181 650.657 362.444 652.601C356.71 654.544 350.577 655.529 344.395 655.505V655.506H135.2C109.338 655.407 86.9686 637.097 87.0762 615.001V615L89.3096 178.429V178.426C89.3828 167.841 94.5259 157.792 103.472 150.456C112.409 143.128 124.436 139.077 136.904 139.126H136.905L347.028 139.863Z" fill="url(#paint0_linear_9033_109435)" stroke="black" stroke-width="3.2"/>
<path d="M297.527 168.098C297.509 166.348 298.321 164.598 299.904 163.249C301.489 161.899 303.699 161.086 306.065 161.044L346.811 161.2V161.201C355.002 161.247 362.797 163.98 368.502 168.744C374.197 173.501 377.325 179.869 377.319 186.436L375.144 612.565V612.566C375.115 619.157 371.931 625.536 366.174 630.276C360.409 635.023 352.558 637.711 344.34 637.692L134.629 636.895H134.63C126.428 636.851 118.623 634.116 112.914 629.344C107.214 624.579 104.09 618.199 104.107 611.624L106.282 185.494V185.49C106.291 182.219 107.078 178.973 108.606 175.935C110.136 172.894 112.382 170.114 115.232 167.763C118.083 165.411 121.48 163.537 125.23 162.258C128.981 160.979 133.005 160.322 137.072 160.33L172.724 160.463H187.044C189.422 160.537 191.626 161.381 193.197 162.754C194.765 164.124 195.558 165.888 195.521 167.647V173.799C195.454 176.472 196.666 178.997 198.781 180.844C200.899 182.693 203.767 183.734 206.744 183.801L206.757 183.802H206.771L286.194 184.104H286.22C289.183 184.061 292.049 183.05 294.181 181.231C296.186 179.52 297.406 177.203 297.52 174.715L297.527 174.215V168.098Z" fill="#F1F1FA" stroke="black" stroke-width="2.8"/>
<path d="M275.163 256.188C274.676 255.554 262.995 240.654 242.141 240.654C221.288 240.654 209.607 255.554 209.12 256.188C207.178 258.716 208.078 262.07 211.128 263.678C214.179 265.287 218.226 264.542 220.167 262.014C220.248 261.909 228.396 251.505 242.141 251.505C255.887 251.505 264.035 261.909 264.116 262.014C266.057 264.542 270.104 265.287 273.154 263.678C276.205 262.07 277.105 258.716 275.163 256.188ZM213.661 204.846C218.18 204.846 221.844 207.882 221.844 211.628C221.844 215.373 218.18 218.41 213.661 218.41C209.141 218.41 205.477 215.373 205.477 211.628C205.477 207.882 209.141 204.846 213.661 204.846ZM262.764 211.628C262.764 215.373 266.428 218.41 270.948 218.41C275.468 218.41 279.132 215.373 279.132 211.628C279.132 207.882 275.468 204.846 270.948 204.846C266.428 204.846 262.764 207.882 262.764 211.628Z" fill="url(#paint1_linear_9033_109435)"/>
<path d="M275.163 256.188C274.676 255.554 262.995 240.654 242.141 240.654C221.288 240.654 209.607 255.554 209.12 256.188C207.178 258.716 208.078 262.07 211.128 263.678C214.179 265.287 218.226 264.542 220.167 262.014C220.248 261.909 228.396 251.505 242.141 251.505C255.887 251.505 264.035 261.909 264.116 262.014C266.057 264.542 270.104 265.287 273.154 263.678C276.205 262.07 277.105 258.716 275.163 256.188ZM213.661 204.846C218.18 204.846 221.844 207.882 221.844 211.628C221.844 215.373 218.18 218.41 213.661 218.41C209.141 218.41 205.477 215.373 205.477 211.628C205.477 207.882 209.141 204.846 213.661 204.846ZM262.764 211.628C262.764 215.373 266.428 218.41 270.948 218.41C275.468 218.41 279.132 215.373 279.132 211.628C279.132 207.882 275.468 204.846 270.948 204.846C266.428 204.846 262.764 207.882 262.764 211.628Z" stroke="url(#paint2_linear_9033_109435)" stroke-width="2"/>
<path d="M275.163 256.188C274.676 255.554 262.995 240.654 242.141 240.654C221.288 240.654 209.607 255.554 209.12 256.188C207.178 258.716 208.078 262.07 211.128 263.678C214.179 265.287 218.226 264.542 220.167 262.014C220.248 261.909 228.396 251.505 242.141 251.505C255.887 251.505 264.035 261.909 264.116 262.014C266.057 264.542 270.104 265.287 273.154 263.678C276.205 262.07 277.105 258.716 275.163 256.188ZM213.661 204.846C218.18 204.846 221.844 207.882 221.844 211.628C221.844 215.373 218.18 218.41 213.661 218.41C209.141 218.41 205.477 215.373 205.477 211.628C205.477 207.882 209.141 204.846 213.661 204.846ZM262.764 211.628C262.764 215.373 266.428 218.41 270.948 218.41C275.468 218.41 279.132 215.373 279.132 211.628C279.132 207.882 275.468 204.846 270.948 204.846C266.428 204.846 262.764 207.882 262.764 211.628Z" stroke="black" stroke-width="2"/>
<path d="M405.63 125.849C401.087 129.614 401.087 135.721 405.63 139.486C410.175 143.25 417.543 143.25 422.088 139.486C426.63 135.721 426.63 129.614 422.088 125.849C417.543 122.084 410.175 122.084 405.63 125.849Z" fill="#BBBBD6"/>
<path d="M413.851 102.914C404.264 102.914 395.244 106.009 388.469 111.629C385.807 113.834 385.807 117.407 388.469 119.61C391.129 121.815 395.439 121.815 398.101 119.61C402.303 116.123 407.898 114.203 413.851 114.203C419.803 114.203 425.398 116.123 429.601 119.61C430.933 120.713 432.68 121.264 434.418 121.264C436.165 121.264 437.903 120.713 439.232 119.61C441.894 117.407 441.894 113.834 439.232 111.629C432.457 106.009 423.438 102.914 413.851 102.914Z" fill="#BBBBD6"/>
<path d="M413.848 84.3301C398.267 84.3301 383.619 89.3586 372.604 98.488C369.944 100.693 369.944 104.267 372.604 106.47C375.266 108.674 379.578 108.674 382.235 106.47C390.678 99.4715 401.907 95.6182 413.848 95.6182C425.785 95.6182 437.013 99.4715 445.456 106.47C446.786 107.572 448.533 108.123 450.271 108.123C452.018 108.123 453.758 107.572 455.088 106.47C457.747 104.267 457.747 100.693 455.088 98.488C444.072 89.3586 429.429 84.3301 413.848 84.3301Z" fill="#BBBBD6"/>
<path d="M470.992 85.3201C455.732 72.6702 435.442 65.7051 413.855 65.7051C392.267 65.7051 371.977 72.6702 356.717 85.3201C354.058 87.525 354.058 91.0989 356.717 93.3018C358.049 94.4042 359.792 94.955 361.534 94.955C363.277 94.955 365.024 94.4042 366.349 93.3018C379.036 82.7845 395.91 76.9934 413.855 76.9934C431.8 76.9934 448.668 82.7845 461.356 93.3018C464.015 95.5066 468.325 95.5046 470.987 93.3038C473.647 91.0989 473.647 87.525 470.992 85.3201Z" fill="#BBBBD6"/>
<path d="M413.443 114.325C411.835 114.325 410.441 113.881 409.262 112.993C408.19 112.104 407.547 110.816 407.333 109.128L401.383 57.2972L401.223 55.9648C401.223 53.2111 402.348 51.0348 404.599 49.4359C406.957 47.7482 409.905 46.9043 413.443 46.9043C416.98 46.9043 419.874 47.7482 422.125 49.4359C424.483 51.0348 425.662 53.2111 425.662 55.9648L425.502 57.4304L419.552 109.128C419.338 110.816 418.641 112.104 417.462 112.993C416.39 113.881 415.05 114.325 413.443 114.325ZM413.443 142.306C410.012 142.306 407.172 141.373 404.921 139.508C402.67 137.554 401.544 135.155 401.544 132.313C401.544 129.47 402.67 127.116 404.921 125.251C407.172 123.297 410.012 122.319 413.443 122.319C416.873 122.319 419.713 123.297 421.964 125.251C424.215 127.116 425.341 129.47 425.341 132.313C425.341 135.155 424.215 137.554 421.964 139.508C419.713 141.373 416.873 142.306 413.443 142.306Z" fill="url(#paint3_linear_9033_109435)"/>
</g>
<defs>
<filter id="filter0_i_9033_109435" x="0" y="0" width="626" height="376.139" filterUnits="userSpaceOnUse" color-interpolation-filters="sRGB">
<feFlood flood-opacity="0" result="BackgroundImageFix"/>
<feBlend mode="normal" in="SourceGraphic" in2="BackgroundImageFix" result="shape"/>
<feColorMatrix in="SourceAlpha" type="matrix" values="0 0 0 0 0 0 0 0 0 0 0 0 0 0 0 0 0 0 127 0" result="hardAlpha"/>
<feOffset dy="6.1386"/>
<feGaussianBlur stdDeviation="8.1848"/>
<feComposite in2="hardAlpha" operator="arithmetic" k2="-1" k3="1"/>
<feColorMatrix type="matrix" values="0 0 0 0 0 0 0 0 0 0 0 0 0 0 0 0 0 0 0.25 0"/>
<feBlend mode="normal" in2="shape" result="effect1_innerShadow_9033_109435"/>
</filter>
<linearGradient id="paint0_linear_9033_109435" x1="216.36" y1="147.191" x2="388.591" y2="600.444" gradientUnits="userSpaceOnUse">
<stop stop-color="#0083FF"/>
<stop offset="1" stop-color="#302EA7"/>
</linearGradient>
<linearGradient id="paint1_linear_9033_109435" x1="236.42" y1="205.598" x2="247.066" y2="263.98" gradientUnits="userSpaceOnUse">
<stop stop-color="#0083FF"/>
<stop offset="1" stop-color="#302EA7"/>
</linearGradient>
<linearGradient id="paint2_linear_9033_109435" x1="236.42" y1="205.598" x2="247.066" y2="263.98" gradientUnits="userSpaceOnUse">
<stop stop-color="#0083FF"/>
<stop offset="1" stop-color="#302EA7"/>
</linearGradient>
<linearGradient id="paint3_linear_9033_109435" x1="411.49" y1="48.1064" x2="459.302" y2="102.532" gradientUnits="userSpaceOnUse">
<stop stop-color="#0083FF"/>
<stop offset="1" stop-color="#302EA7"/>
</linearGradient>
</defs>
</svg>
